<?xml version="1.0" encoding="utf-8"?>
<!-- Generator: Adobe Illustrator 27.0.1, SVG Export Plug-In . SVG Version: 6.00 Build 0)  -->
<svg version="1.1" id="Layer_1" xmlns="http://www.w3.org/2000/svg" xmlns:xlink="http://www.w3.org/1999/xlink" x="0px" y="0px"
	 viewBox="0 0 396 486" style="enable-background:new 0 0 396 486;" xml:space="preserve">
<style type="text/css">
	.st0{fill:#1A1919;}
</style>
<g id="Layer_1_00000155103996994403298330000001468870439332087722_">
	<path class="st0" d="M174.1,210.5l-12.8-8.7c-2.1,0-4.1-0.1-4.4,0c-0.6,0.1-1.2-0.1-2-0.2c-0.4,0-1.9-0.2-3.2-0.3
		c-0.4,0.2-0.5,0.3-0.8,0.6c-2.4,1.8-4.4,3.9-5.9,5.9c-1.5,2.1-2.5,4-2.9,5.8c-0.4,1.8-0.4,3.3-0.1,4.3c0.2,1,0.5,1.6,0.5,1.6
		s-0.1-0.1-0.3-0.3c-0.2-0.2-0.5-0.5-0.8-1c-0.6-0.9-1.4-2.5-1.5-4.7c-0.2-1.6,0-3.6,0.6-5.6c-1.9-6.1,0.7-19,3.4-24.8
		c-0.5-1-1-2-1.5-3c-1.8-3.6-3.9-7.2-6.2-10.7c-0.2-0.2-0.3-0.4-0.5-0.7l-0.6-1c-0.4-0.7-0.7-1.4-1-2.1c-0.5-1.5-1-3.1-1.1-4.6
		c-0.4-3.1,0.2-6.1,0.9-8.7c0.7-2.6,1.7-4.9,2.8-7.1c1-2.2,2.1-4.1,3-6c0.9-1.9,1.7-3.6,2.1-5c0.2-0.7,0.3-1.3,0.3-1.7
		c0-0.2,0-0.2,0-0.2l0.1,0c0,0-0.1-0.2-0.1-0.3l-0.1-0.4l0-0.1c0,0.1-0.1-0.4,0.1,0.2l-0.1-0.2l-0.4-0.9c-0.1-0.3-0.2-0.6-0.3-0.9
		l-0.3,0.3c0,0,0-0.1-0.1-0.2c-0.1-0.1-0.1-0.2-0.2-0.4c-0.2-0.4-0.6-0.9-1.1-1.6c-0.9-1.3-2.2-3-3.7-4.5c-0.4-0.3-0.8-0.8-1.1-1.1
		c-0.4-0.3-0.8-0.7-1.2-0.9c-0.4-0.3-0.8-0.6-1.2-0.8c-0.4-0.2-0.8-0.4-1.1-0.5c-0.4-0.2-0.7-0.2-1-0.3c-0.3-0.1-0.6-0.1-0.8-0.1
		c-0.5,0-0.8,0-0.8,0s0.2-0.2,0.6-0.5c0.2-0.2,0.5-0.3,0.8-0.5c0.3-0.2,0.8-0.3,1.2-0.4c0.5-0.1,1-0.2,1.5-0.3
		c0.6-0.1,1.1-0.1,1.7-0.1c0.6,0,1.2,0.1,1.8,0.1c0.6,0.1,1.2,0.2,1.9,0.3c0.9,0.2,1.9,0.4,2.7,0.6c0.3-1.2,0.8-2.4,1.3-3.5
		c2-4.2,4.7-7.1,7.3-9.6c5.2-4.8,10-7.9,13-10.4c1.5-1.2,2.6-2.3,3-3.2c0.2-0.4,0.3-0.8,0.3-1.1c0-0.3,0-0.4,0-0.4
		c0,0,0.4,0.5,0.2,1.7c-0.2,1.1-1,2.6-2.1,4.3c-1.2,1.7-2.7,3.6-4.5,5.7c-1.8,2.1-3.8,4.5-5.7,7.1c-1.9,2.6-3.7,5.6-4.6,8.6
		c-0.9,3.1-0.8,6.1,0.6,8.9l0.3,0.5l0.1,0.1l0.2,0.5l0.2,0.4c0.1,0.1,0.1,0.2,0.2,0.4l0.2,0.7c0.2,0.5,0.3,1,0.3,1.4
		c0.3,1.7,0.2,3.3,0,4.7c-0.4,2.9-1.3,5.2-2.2,7.4c-0.9,2.2-1.8,4.2-2.6,6.2c-0.8,2-1.5,3.9-2,5.6c-0.5,1.8-0.6,3.4-0.5,4.7
		c0,0.7,0.2,1.3,0.4,1.9c0.1,0.3,0.2,0.6,0.4,0.9l0.2,0.4c0.1,0.2,0.3,0.5,0.4,0.7c2.4,4,4.5,8.1,6.2,12.3c1.7,4.2,3,8.3,3.7,12.7
		c0.1,0.9,0.2,1.9,0.3,2.8c0.1,0.5,0.3,1,0.5,1.2c0.6,1.3,0.9,1,1.2,1.4l1.1,0.3c0.3,0,0.6,0,0.7,0.2c0,0,19.6,6.1,19.6,6.1
		c1-0.9,3-4.3,3.1-10.8c0-0.8,0-1.8,0.1-2.9c0.1-3.5,0.3-14-0.6-17c-0.3-0.2-0.7-0.5-1.1-0.8c-2.6-1.9-6.9-5-7.5-10.5
		c-0.4-3.9,1.1-7.9,4.8-12c4-4.5,2.3-8.6-0.3-13.1c-0.2-0.3-0.3-0.6-0.5-0.9l-0.1,0c0,0,0-0.1,0-0.2c-0.8-1.7-1.5-3.8-0.5-6
		c0,0,0-0.1-0.1-0.1c-0.2-0.3-0.4-0.6-0.6-0.9c-0.3-0.3-0.6-0.6-0.9-0.9c-0.6-0.6-1.3-1.1-2.1-1.7c-1.6-1.1-3.3-2.1-5-3.1
		c-1.7-1-3.2-1.9-4.5-2.8c-0.7-0.4-1.2-0.9-1.7-1.3c-0.5-0.4-0.9-0.7-1.3-1c-0.7-0.6-1.1-0.9-1.1-0.9s0.5,0.2,1.3,0.5
		c0.4,0.2,0.9,0.4,1.5,0.6c0.6,0.2,1.2,0.4,2,0.6c1.5,0.4,3.2,0.8,5,1.2c1.9,0.4,3.9,0.7,6,1.3c1.1,0.3,2.1,0.7,3.2,1.1
		c0.2,0.1,0.3,0.1,0.4,0.2c2-10.1,3.7-28.4,1.6-35.9c-1.4-4.7-2-10-2.3-15.5c0-0.1,0-0.2-0.1-0.3c-0.1-0.7-0.3-1.7-0.6-3
		c-0.3-1.3-0.7-2.7-1.2-4.2c-0.6-1.5-1.1-3.2-1.8-4.7c-0.4-0.8-0.7-1.6-1.1-2.4c-0.4-0.8-0.8-1.5-1.2-2.2c-0.4-0.8-0.8-1.4-1.2-2
		c-0.4-0.6-0.8-1.2-1.2-1.8c-0.4-0.6-0.8-1-1.2-1.4c-0.4-0.4-0.7-0.8-0.9-1.1c-0.5-0.6-0.8-0.9-0.8-0.9s0.4,0.2,1.1,0.6
		c0.4,0.2,0.8,0.4,1.3,0.7c0.5,0.3,1.1,0.5,1.6,0.9c1.1,0.8,2.6,1.7,4,2.8c0.7,0.6,1.4,1.2,2.1,1.8c0.6,0.5,1.1,1,1.6,1.5
		c0.7-8.1,2-15.3,3.3-19.5c1.1-3.9,0.8-7.7-1-10.3c-1.9-2.8-5.9-6.6-10.7-7.1c-2.9-0.3-20.9,0.7-15,9.7c1.4,2.1,2.9,4.5,4.3,7.1
		c1.3,2.6,2.5,5.5,2.4,8.6c0,1.5-0.3,2.9-0.8,4.1c-0.3,0.6-0.5,1.2-0.9,1.7c-0.3,0.5-0.7,1-1.1,1.4c-0.7,0.8-1.5,1.4-2.1,2
		c-0.7,0.5-1.3,0.9-1.8,1.2c-1,0.6-1.6,0.9-1.6,0.9s0.5-0.5,1.4-1.3c0.4-0.4,0.9-1,1.4-1.6c0.5-0.7,1-1.3,1.4-2.2
		c0.2-0.4,0.4-0.9,0.6-1.3c0.2-0.5,0.3-1,0.4-1.4c0.1-1,0.1-2-0.2-3c-0.5-2-1.9-4-3.5-5.9c-3.3-3.7-11-15-15.6-16.7
		c-2.8-1-7.8,0-10.5,0.9c-3.8,1.3-11.9,10.3-18.8,16.1c-2.1,1.8-4.2,3.6-6.3,5.3c0,1.2,0.2,2.6,0.6,3.9c5,19,3.4,27.9-23.6,35.5
		c-7,2-6.9,2.8-6.2,8.3c0.2,1.8,0.5,3.9,0.5,6.2c4.1-1,8.7-1.4,13.3-2c5.1-0.7,10.1-1.6,13.5-3.3c0.8-0.4,1.6-0.9,2.2-1.4
		c0.6-0.5,1.1-0.9,1.4-1.4c0.7-0.8,1-1.5,1-1.5c0,0-0.1,0.7-0.6,1.7c-0.2,0.5-0.6,1.2-1.1,1.8c-0.5,0.7-1.1,1.4-1.9,2
		c-3.1,2.8-8.1,5.2-13,7.2c-4.9,2-9.9,3.9-12.7,5.6c-0.7,0.4-1.7,1.4-2,2c-0.1,0.2-3,4.2-4.6,6.4c-5.2,12.6-5,14.2-2.1,21.7
		c1.9,4.8-0.6,8.7-3.9,12.3c-0.1,0.4-0.2,0.9-0.3,1.3c-0.6,3.1-1.1,7.6-1.1,12c-0.1,4.4,0.4,8.9,1.4,12.1c0.5,1.6,1.2,2.8,1.8,3.6
		c0.6,0.8,1.1,1,1.1,1.1c0,0-0.6-0.1-1.4-0.7c-0.9-0.6-2-1.6-3-3.1c-2.1-3-3.9-7.5-5.2-12.1c-0.8-2.8-1.4-5.6-1.9-8.2
		c-2.7,1.2-5.6,2-8.5,2.5c-7.5,6.7-0.6,22.7,1.7,27.7c1.3,2.8,2.9,5.5,4.5,8.1c3.5,2.7,7.2,5.1,10,6.8c1.7,1.1,6.8,1.7,9.1,2.7
		c0.7,0.3,1.4,0.6,2,0.9l-9.9-5.9c5.4-0.7,13.7-7.3,20-4.1c-7.2,1.2-10.7,6.7-5,13l-2.1-1.3c1.2,0.8,2.5,1.7,4,2.7
		c2.3,1.5,4.6,2.9,6.8,4.3c4.6,2.7,8.9,5.2,12.7,7.2c1.9,1,3.6,1.8,5.2,2.5c-0.8-1.1-1.5-2.1-2.2-3.3c-2.2-3.6-3.9-7.9-4.7-12.4
		c-0.8-4.6-0.5-9.3,0.5-13.8c0.5-2.2,1.2-4.6,2-6.5c0.8-1.9,1.5-3.9,2.3-5.8c1.5-3.8,2.9-7.5,3.7-11.1c0.9-3.6,1.2-7.2,0.9-10.7
		c-0.1-1.8-0.5-3.6-0.9-5.3c-0.5-1.8-0.9-3.2-1.8-5.3l-1.2-2.9c-0.4-1.1-0.8-2.2-1.2-3.3c-0.7-2.3-1.2-4.6-1.5-7.1
		c-0.1-1.2-0.2-2.5-0.2-3.8c-0.1-0.1-0.2-0.2-0.3-0.4c-1.6-1.8-4-4-6.7-6c-2.6-2-5.5-3.7-7.8-3.9c-0.6,0-1.1,0-1.5,0.2
		c-0.4,0.2-0.7,0.4-1,0.7c-0.5,0.6-0.6,1-0.6,1c0,0,0-0.4,0.2-1.2c0.1-0.4,0.4-0.8,0.8-1.2c0.5-0.4,1.1-0.7,1.8-0.9
		c1.4-0.4,3.1-0.3,4.8-0.1c1.7,0.3,3.5,0.7,5.2,1.3c2.3,0.7,4.5,1.6,6.5,2.6c0.4-1.1,0.9-2.3,1.5-3.3c1.3-2.2,2.9-4.2,4.6-5.9
		c0.9-0.8,1.7-1.6,2.6-2.3c0.8-0.7,1.9-1.4,2.5-1.9c0.9-0.7,2.1-1.9,3-3.2c1-1.3,1.8-2.8,2.6-4.3c1.5-3,2.5-6.2,2.9-9.3
		c0.5-3.1,0.3-6.2-0.3-9.1c-0.3-1.4-0.8-2.8-1.4-4.1l-0.4-0.9l-0.6-1.1l-0.6-1.1c-0.2-0.4-0.4-0.9-0.6-1.3c-0.8-1.8-1.2-3.8-1.1-5.7
		c0-1.9,0.5-3.7,1.1-5.2c1.2-3.1,2.9-5.4,4.5-7.5c3.2-4.2,6.2-7.4,7.8-10.5c0.8-1.5,1.3-3,1.3-4.3c0.1-1.3-0.2-2.5-0.6-3.4
		c-0.4-0.9-0.8-1.5-1.1-1.9c-0.3-0.4-0.5-0.6-0.5-0.6s0.2,0.2,0.6,0.5c0.4,0.4,0.9,0.9,1.5,1.8c0.6,0.8,1.1,2,1.3,3.6
		c0.2,1.5,0,3.4-0.7,5.2c-1.3,3.7-3.9,7.6-6.4,11.9c-1.2,2.2-2.5,4.5-3.1,6.9c-0.6,2.4-0.5,4.7,0.7,6.7c0.1,0.3,0.3,0.5,0.5,0.8
		l0.6,0.9l0.7,1l0.7,1.2c1,1.7,1.7,3.4,2.4,5.2c2-1.4,4.2-2.7,6.3-3.8c3.1-1.6,6-3,7.9-5.2c0.4-0.6,0.9-1.1,1.2-1.8l0.6-1.2
		c0.3-0.5,0.6-1,0.9-1.4c1.1-1.8,2.8-3.3,4.7-4.3c1.9-1,4.1-1,5.9-0.5c1.8,0.5,3.2,1.5,4.3,2.5c2.1,2.1,3.1,4.3,3.7,5.8
		c0.6,1.5,0.8,2.4,0.8,2.4s-0.4-0.8-1.2-2.2c-0.8-1.3-2.2-3.2-4.4-4.6c-1.1-0.7-2.3-1.2-3.6-1.3c-1.3-0.1-2.6,0.3-3.6,1.1
		c-1,0.8-1.9,2-2.4,3.4c-0.2,0.4-0.2,0.7-0.4,1l-0.4,1.3c-0.3,1.1-0.8,2.1-1.3,3.1c-1.1,2-2.6,3.6-4.1,5c-1.5,1.4-3,2.5-4.4,3.5
		c-2.7,2.1-4.7,3.9-5.8,5.6c-1.1,1.7-1.5,3.2-1.7,4.3c-0.2,1.3-4.1,11.4-4.1,11.4c-0.8,2-1.8,3.9-3,5.8c-1.2,1.9-2.6,3.7-4.7,5.6
		c-0.9,0.8-1.5,1.2-2.2,1.8c-0.7,0.6-1.3,1.2-1.8,1.8c-1.1,1.2-2,2.4-2.7,3.8c-1.4,2.6-1.7,5.6-1.3,8.9c0.2,1.6,0.6,3.4,1.2,5.1
		c0.3,0.9,0.6,1.7,1,2.6l0.6,1.3l0.7,1.6c0.8,1.8,1.6,4.3,2.3,6.6c0.6,2.3,1.1,4.7,1.3,7.1c0.5,4.8-0.1,9.8-1.2,14.3
		c-1.1,4.5-2.8,8.6-4.4,12.5c-0.8,1.9-1.6,3.8-2.4,5.7c-0.8,1.9-1.3,3.4-1.8,5.1c-0.9,3.4-1.2,6.8-0.8,10c0.7,6.6,4.3,12.6,8.7,17.7
		c1.1,1.3,2.2,2.5,3.4,3.7c0.6,0.6,1.2,1.1,1.8,1.7c0.6,0.6,1.3,1.2,1.9,1.7c2.4,2.2,4.9,4.3,7.3,6.2c4.8,3.7,9.6,6.7,14.1,8
		c4.2,1.3,8.2,0.9,11.2-0.5c1-0.5,2.1-1.2,3.1-1.9c1.7-1.3,2.9-2.6,3.8-3.6c0.7-0.7,1.1-1.3,1.4-1.8c0.3-0.4,0.5-0.6,0.5-0.6
		s-0.1,0.2-0.3,0.7c-0.2,0.5-0.5,1.2-1,2c-0.3,0.6-0.8,1.4-1.4,2.1c-2.7,8.7-2,7,6.4,15c2.7,1.4,5.6,3.3,8.4,5.7
		c3.2,2.7,6.3,5.9,9.2,9.7c0.6,0.9,1.3,1.7,1.9,2.7C191.7,250.2,180.1,214.9,174.1,210.5 M66.5,207.5
		C66.5,207.5,66.5,207.4,66.5,207.5C66.5,207.4,66.5,207.4,66.5,207.5C66.5,207.4,66.5,207.4,66.5,207.5 M66.4,207.4L66.4,207.4
		C66.1,207.1,66.3,207.3,66.4,207.4 M153.8,448.5c0.4,0,0.1-0.2,0.2-0.2h0l-0.5,0.1c0,0,0,0,0.1,0.1c0.1,0.1,0.2,0.1,0.3,0.1
		L153.8,448.5z M188.2,312.6c-0.1-5-0.4-10.1-0.8-15c-0.2-2.4-0.5-4.9-0.8-7.2c-0.4-1.3-0.8-2.6-1.2-3.8c-0.6-1.9-1.1-3.9-1.4-5.8
		l0,0l0,0c-1.2-3.1-2.6-6-4.2-8.8c-2.1-3.7-4.4-7-6.8-9.8c-2.4-2.9-4.8-5.3-7.2-7.2c-2.4-1.9-4.7-3.3-6.7-4.2
		c-0.7-0.3-1.3-0.5-1.9-0.7c-1.2,0.3-2.3,0.9-3.3,1.6c-0.1,0.2-0.2,0.4-0.3,0.6c-0.7,1.4-1.7,2.7-2.7,4c-1.1,1.3-2.2,2.6-3.5,3.8
		c-1.3,1.2-2.6,2.4-4,3.5c-1.4,1.1-2.8,2.2-4.2,3.2c-1.5,1-2.8,2-4.3,2.9c-1.4,0.9-2.8,1.8-4,2.6c-1.3,0.8-2.4,1.6-3.5,2.4
		c-1,0.8-2,1.5-2.6,2.2c-0.7,0.7-1.2,1.4-1.5,2.1c-0.1,0.2-0.2,0.4-0.2,0.6c0,0.2-0.1,0.4-0.1,0.6c-0.1,0.4-0.1,0.8-0.1,1.1
		c0,0.7,0.2,1.4,0.3,1.8c0.1,0.5,0.1,0.7,0.1,0.7s-0.2-0.1-0.6-0.3c-0.4-0.2-1.1-0.5-1.7-1.2c-0.4-0.3-0.7-0.7-1-1.2
		c-0.2-0.3-0.3-0.5-0.5-0.8c-0.1-0.3-0.2-0.7-0.3-1c-0.3-0.7-0.3-1.5-0.3-2.4c0-0.8,0.1-1.7,0.4-2.6c0.4-1.8,1.2-3.3,2.2-4.9
		c1-1.5,2.1-3,3.4-4.3c1.3-1.4,2.6-2.6,4-3.8c1.4-1.2,2.9-2.3,4.3-3.3c1.5-1,3-2,4.4-2.9c1.3-0.9,2.7-1.6,4-2.4
		c1-3.3-0.6-6.7-2.9-9.6c-3.6-1.3-7.2-3.1-10.7-5.3c-2.8-1.7-5.6-3.6-8.4-5.7c-1.7-1.2-3.4-2.6-5.1-4.1c-7.8,0.3-17.9,4.2-22.7,7.5
		c-0.3-2.8,4.5-9.7,9.1-12.9c-0.7-0.1-1.5-0.2-2.3-0.4c-4.6-0.8-9.8-2.4-15.1-4.6c-2.7-1.1-5.3-2.4-8-3.9c-2.7-1.5-5.3-3.1-8.1-5.5
		l-0.7-0.6c-0.1,0-0.3-0.1-0.5-0.2c-0.7-0.1-1.8-0.3-3-0.2c-2.4,0.1-5,0.4-7.5,0.9c-5.1,0.9-10,2.1-14.2,3.2c-4.2,1.1-7.7,2.1-10,3
		c-1.1,0.5-2.1,0.9-2.5,1.3c-0.5,0.4-0.2,0.8-0.2,0.8c0,0-0.1,0-0.2-0.2c-0.1-0.2-0.2-0.5-0.1-0.9c0.2-0.8,0.9-1.7,1.8-2.8
		c1-1.2,2.5-2.5,4.2-3.8c3.6-2.8,11.7-6.3,12.7-10.8c1-4.5-4.7-12-6.7-16.2c-0.1-0.1-0.1-0.3-0.2-0.4c-2.7-6.4-4.2-12.3-4.3-17.4
		C18.4,185.3,21,230.6,26,250.3c0.4,0.8,0.9,1.9,1.5,3.2c1.3,2.9,2.9,6.7,4.3,10.6c1.4,3.9,2.6,8,2.9,11.2c0.2,1.6,0.1,2.9-0.1,3.8
		c-0.2,0.9-0.5,1.3-0.5,1.3c0,0,0-0.1,0-0.4c0-0.2,0-0.6,0-1c-0.1-0.9-0.5-2-1.1-3.3c-1.1-2.4-3.1-5.2-5.2-7.9
		c-1.1,2.4-2.6,4.5-4,6.4c-3.4,4.6-6.8,9.3-6.4,18.3c0,0.1,0.1,2.4,0.5,6c0.1,1.2,3.5,3.4,4.8,3.2c8.2-1.3,14.4,1.3,22.1,5.9
		c3,1.8,11.4,10.6,13,13.2c0.8,1.3,3.4,4.9,4.1,6.2c0.3,0.5,5.6,6,12.4,7.1c5.4,0.9-8.4,1.1-7.7,3.7c0.6,2.6,3.4,7.2,6.9,11.9
		c6.1,4,13,6.2,20.4-1.5c-1.4,11.7-10.7,15.8-13.8,22c0,0,0,0,0,0c1.5,4.5,4.4,9.5,8.2,14c1.9,2.2,4,4.2,6.3,5.9
		c2.3,1.7,4.8,3,7.3,3.7c0.6,0.2,1.2,0.3,1.9,0.4c0.9,0.2,1.5,0.2,2.3,0.3c1.5,0.2,3.1,0.4,4.7,0.5c3.2,0.3,6.3,0.4,9.5,0.6
		c6.3,0.3,12.3,0.7,17.6,1.6c2.6,0.5,5.1,1,7.2,1.8c2.1,0.8,4,1.8,5.3,3c1.3,1.2,1.9,2.5,2,3.4c0.1,0.4,0.1,0.8,0.1,1
		c0,0.2,0,0.3,0,0.3s-0.2-0.4-0.7-1c-0.5-0.6-1.4-1.2-2.6-1.6c-2.5-0.7-6.6-0.6-11.5,0c-4.9,0.5-10.8,1.3-17.3,1.7
		c-3.3,0.2-6.7,0.3-10.2,0.1c-1.8-0.1-3.6-0.2-5.4-0.5c-0.2,0-0.3,0-0.5-0.1c-0.3,0.9-0.5,1.9-0.7,3.1c0.1,0.3,0.2,0.6,0.4,0.9
		c0.4,0.9,0.7,1.9,1,2.9c0.3,1,0.6,2,0.9,3c0.3,1,0.6,2.1,0.8,3.1c0.3,1,0.5,2.1,0.7,3c0.2,1,0.4,2,0.6,2.9c0.1,0.5,0.2,0.9,0.3,1.4
		c0.1,0.4,0.2,0.9,0.3,1.3c0.1,0.9,0.4,1.7,0.5,2.5c0.1,0.9,0.4,1.5,0.6,2.2c0.1,0.4,0.2,0.7,0.3,1c0.1,0.3,0.2,0.6,0.3,0.8
		c0.2,0.5,0.3,0.9,0.5,1.2l0.2,0c0,0.1-0.1,0.2-0.1,0.3c0,0.1,0.1,0.2,0.1,0.2s0,0-0.1,0c-0.6,2.8-1.9,4.5-3.2,5.7
		c5,9.2,18.3,23.7,44.5,25.8l1.4,0.1c0.1-0.6,0.2-1.2,0.3-1.9c0.4-2.7,0.7-6,0.6-9.4c0-1.7-0.1-3.4-0.4-4.9
		c-0.2-0.8-0.4-1.5-0.6-1.9c0-0.1-0.1-0.2-0.1-0.2l-1,0.3c-1,0.2-2.1,0.3-3.1,0.4c-2.1,0.1-4.2,0-6.1-0.4c-1.9-0.3-3.7-0.8-5.3-1.3
		c-1.6-0.6-3.1-1.1-4.5-1.7c-2.7-1.2-4.9-2.4-6.4-3.3c-1.5-0.9-2.3-1.5-2.3-1.5s1-0.1,2.8-0.1c1.8,0,4.2,0,7.1,0.3
		c1.4,0.1,3,0.2,4.6,0.4c0.8,0.1,1.6,0.1,2.4,0.2c0.8,0.1,1.7,0.2,2.5,0.2c0.8,0.1,1.7,0.1,2.5,0.1c0.8,0,1.7,0,2.5,0
		c0.8,0,1.7-0.1,2.6-0.1l1.3-0.1l0.3,0l0.1,0l0.2,0c0.2,0,0.7,0,1,0c0.6,0.1,1.2,0.2,1.7,0.5c1.1,0.5,1.9,1.3,2.5,2
		c0.5,0.7,0.8,1.4,1.1,2.1c0.5,1.3,0.6,2.5,0.7,3.6c0.2,2.2,0,4.2-0.3,6.1c-0.6,3.8-1.7,7.2-2.9,10c-0.4,0.9-0.9,1.8-1.3,2.6
		l0.5,0.8c3.1,5,9.8,2.7,12.6,1.4c5-2.3,10.1-9.7,9.6-19l-0.1-2.9l2.3-1.7c0.3-0.2,7.7-6.5,2.5-22.4c-2.5,0.2-5.1,0.1-7.2,4.1
		c-0.5,4.9-2,11.3-5.2,16.6c1.3-6.3-0.1-11.1-1.9-14.5c0,0-0.1,0-0.1,0c-2.1,0.1-4.1,0-5.9-0.3c-3.7-0.4-7.1-1.3-10-2.2
		c-6-1.9-10.6-4-13.8-5.7c-3.2-1.7-4.9-2.8-4.9-2.8s2.1,0.2,5.6,0.6c1.7,0.2,3.9,0.4,6.3,0.7c2.4,0.3,5.1,0.5,8,0.7
		c2.9,0.2,6,0.3,9.2,0.2c3.1-0.1,6.4-0.6,8.6-1.7c3-1.4,6.2-3.2,8.4-5.2c1.1-1,1.9-2,2.2-2.7c0.3-0.8,0.4-1.2,0.1-2
		c-0.2-0.8-0.9-2-1.9-3.2c-0.5-0.7-2-1.8-3.4-2.8c-3-2-6.3-3.8-9.5-5.6c-3.3-1.8-6.4-3.5-9.4-5.1c-3-1.7-5.9-3.3-8.5-4.8
		c-5.2-3.1-9.5-6-12.2-8.4c-1.4-1.2-2.3-2.4-2.8-3.3c-0.5-0.9-0.2-1.5-0.3-1.5c0,0,0,0.6,0.7,1.2c0.6,0.6,1.8,1.2,3.4,1.9
		c3.1,1.4,7.9,2.9,13.6,4.8c5.7,1.9,12.4,4.1,19.5,7c3.5,1.5,7.2,3,11,5.2c0.6,0.4,1.2,0.7,1.8,1.1c3.7-6.6,2.5-14.9,1.2-24.4
		c-1-6.8-2-14.3-1.1-21.8c-0.4,0.1-0.9,0.1-1.3,0.2c-1,0.1-1.9,0-2.7-0.1l-0.6-0.1l-0.2,0l-0.2,0l-0.1,0l-0.2-0.1l-0.8-0.2
		c-0.5-0.1-1.3-0.4-2-0.6c-0.6-0.2-1.2-0.5-1.8-0.8c-4.7-2.2-8.2-5.1-11.2-7.7c-3-2.6-5.5-5.1-7.9-7c-2.4-1.9-4.6-3.1-6.6-3.6
		c-2-0.4-3.8-0.3-4.9,0.1c-0.6,0.1-1,0.3-1.3,0.4c-0.3,0.1-0.5,0.2-0.5,0.2s0.1-0.1,0.4-0.3c0.3-0.2,0.6-0.5,1.2-0.8
		c1-0.7,2.8-1.6,5.4-1.6c2.5-0.1,5.6,0.7,8.6,2.3c3,1.5,6.2,3.4,9.5,5.4c3.5,2.1,7.2,4.2,11.1,5.3c0.4,0.1,0.8,0.2,1.2,0.3
		c2.4,0.4,3.8,0.7,5.3-1.8c0.8-1.4,1.5-3.4,2-5.5c0.5-2.1,0.8-4.5,1.1-6.8C188.2,322.6,188.3,317.6,188.2,312.6 M105.2,433.8
		c-0.3-0.2-0.7-0.4-1-0.6c-0.9-0.6-1.9-1.4-2.6-2.3c-0.4-0.4-0.8-0.9-1.3-1.4c-0.4-0.5-0.7-1-1.1-1.6c-0.7-1.1-1.3-2.3-1.8-3.5
		c-0.5-1.2-0.9-2.5-1.2-3.8c-0.3-1.3-0.5-2.6-0.6-3.8c-0.1-1.3-0.2-2.5-0.1-3.7c0.1-2.1,0.4-4.1,0.9-5.8c-0.3-1.8-0.6-3.4-0.8-4.8
		c-2.7-1.3-5.1-2.9-7.2-4.7c-2.9-2.5-5.3-5.4-7.3-8.4c-2.6-3.9-4.3-8-5.4-12c-0.9,0.6-1.9,1.2-2.9,1.5c-1.4,0.5-2.8,0.7-4.2,0.6
		c-0.8,0-1.6-0.2-2.3-0.3l-0.3,0.4c-0.2,0.3-5.9,10.7,10.1,30.2c14,17,21.9,22.3,24.6,23.1c-0.1,0-0.1,0-0.2,0.1L105.2,433.8z
		 M65.3,370.1c5.2-0.4,5.8-0.9,6.8-5.8c0.5-2.4,0.5-6.9-1.1-9c0,0-0.1-0.1-0.1-0.1c-1.7-2.2-3.9-5.5-6.1-9.6
		c-0.9-1.6-1.8-3.4-2.7-5.2l0,0.1c0,0-0.3-0.2-0.9-0.7c-0.1-0.1-0.1-0.2-0.4-0.4c-0.4-0.2-0.7-0.4-1.2-0.6c-1.1-0.5-2.7-1-4.3-1.4
		c-5.3-1.3-10.5,0.2-15.8,3.1c0,0,0.2-0.4,0.5-1.1c0.1-0.4,0.4-0.8,0.7-1.2c0.3-0.5,0.7-1,1.2-1.5c0.2-0.3,0.5-0.5,0.8-0.8
		c0.3-0.2,0.6-0.5,0.9-0.7c0.6-0.5,1.3-1,2.1-1.5c1.5-0.9,3.3-1.7,5.1-2.2c0.8-0.3,1.7-0.5,2.5-0.7c-0.2-1.5-0.5-3.5-1.1-6
		c-1.5-2-3-4-4.5-5.8c-1.8-2.2-3.6-4.2-5.5-5.9c-1.9-1.8-3.8-3.1-5.6-4c-0.5-0.2-0.9-0.4-1.3-0.5c-0.2-0.1-0.4-0.1-0.7-0.2l-0.3-0.1
		l-0.5-0.1c-0.7-0.1-1.2-0.1-1.8-0.2c-0.6-0.1-1.2-0.1-1.8-0.1c-2.4-0.1-4.8-0.1-7.1-0.1c-1.2,0-2.4,0-3.6,0
		c0.4,0,3.8,17.6,4.2,19.2c3.4,12.6,8.4,26.3,18.1,35.4c4.2,4,9.4,6.7,15.2,7.6C59.5,370.4,62.4,370.3,65.3,370.1 M40.8,145.6
		c6.9-0.5,12.9-2.7,16-6c1.7-1.8,3.3-4.3,2.4-8.6l0,0c-2.2-8-0.2-12.7,5.8-27c2.6-6.2,2-10.8,1.4-14.8c-0.3-2.5-0.6-5-0.2-7.3
		c-4.6,2.8-7.1,9.6-9.8,16.7c-2.5,6.7-5,13.6-9.7,19.3C40.5,125.4,39.3,136.3,40.8,145.6 M69.6,75.7c1.8-1.4,4.4-2.4,8.1-2.8
		c27.2-3.2,19.8-16.7,18.4-27.3c-1.8,1.3-3.5,2.4-5.2,3.3C78.6,55.7,69.4,67.4,69.6,75.7 M200.9,322.9c0,5.6-0.6,11.2-2.1,16.7
		c-0.5,1.9-1.1,3.7-1.8,5.4c-3,7.9-1.8,16.6-0.5,25.8c1.5,10.4,3,21.2-2.2,30.8c2.8,3.7,3.8,7.4,3.1,11.1c-0.6,3.2-2.4,5.6-4.2,7.2
		c6.7,18.8,0.1,29.6-3.7,33.8c-0.3,13.6-8.3,23.4-16,26.9c-3.3,1.5-7.1,2.5-10.8,2.6c-5.1,0.1-10.1-1.5-13.8-5.9
		c-31.7-3.5-47.6-23.1-52.6-35.2c-5.6-2.3-14.5-8.7-28.5-25.7c-13.1-15.9-14.4-28-13.3-35.2C10.7,371.5,6.6,293.8,6.6,293
		c-0.6-12.8,4.7-20,8.5-25.2c3.3-4.5,3.7-5.4,2.8-7.3c-7.6-18.3-13.9-81.7,13.2-108c-3.4-12.9-2.5-29.9,7.1-41.4
		c3.5-4.3,5.8-10.3,7.9-16.2c3-8,6-16.2,12.6-21.1c1-13.9,14.2-27.3,26.8-34.3c4.7-2.6,10.6-7.6,16.3-12.5c11-9.4,20.6-17.4,29-16.8
		c3.2,0.2,8.2-0.6,13.5-1.6c8.1-1.4,17.3-3,26.4-2.1c10.3,1,15.5,5.9,18.2,9.8c3.6,5.4,4.5,12.5,2.5,19.5
		c-2.6,8.8-5.2,31.3-1.3,44.6c3.1,10.6,0.5,37.8-3.4,48.4c2.3,4.2,7.7,14.9-1.4,25.1c-1.9,2.1-2.2,3.3-2.2,3.6
		c0.1,0.7,2.2,2.2,3.1,2.9c1.3,0.9,2.4,1.8,3.4,3c2.8,3.4,3.1,10.4,2.8,23.9c0,1.1,0,2-0.1,2.8c-0.1,7.9-2.4,14.6-6.3,18.4
		c10.2,16.9,19.3,56.1,9.6,74.4c1.1,3.2,2.2,7.1,3.1,11.5c1.5,6.9,2.1,14,2.1,21.1L200.9,322.9z M100.8,433.1
		c0.3,0.1,0.5,0.1,0.7,0.1C101.3,433.2,101,433.1,100.8,433.1 M101.5,433.2C101.5,433.2,101.5,433.2,101.5,433.2
		C101.5,433.2,101.5,433.2,101.5,433.2L101.5,433.2z M79.4,166.5c-1,8.3,7.3,20.4,7.3,20.4s-1.2-16.7,0.9-20.6
		c2.9-5.4,2.2-22.1-11.6-22.4C83,146.4,80.3,158.8,79.4,166.5 M89.5,311.2l0.1,0.2l0.1,0.1C89.8,311.6,89.6,311.4,89.5,311.2
		 M168.8,306.7c-1.2-2-2.9-4.3-5-6.9c-2.1-2.6-4.7-5.4-8.5-7.8c-1.9-1.2-4.1-2.3-6.7-3c-1.3-0.3-2.7-0.5-4.1-0.5
		c-0.8,0-1.4,0.1-2.3,0.1c-0.6,0.1-1.1,0.1-1.8,0.3c-5.1,1-10,2.8-14.8,6c-1.8,1.2-3.5,2.6-5.2,4.2c-1.9-1-4.2-2-6.3-2.9
		c-2-1.5-4.2-3.2-6.5-5.2c-0.7-0.6-1.5-1.3-2.2-2c-5.9-8.1-8.2-21.7-4.6-30.9c-4.1,2.9-5.9,13.4-7.9,19.7c-0.5-0.4-1-0.9-1.6-1.3
		c-1.6-1.3-3.3-2.6-5.1-3.8c-1.7-1.2-3.7-2.5-5.5-3.5c-0.9-0.5-1.9-1.1-2.8-1.6c-0.4-0.3-0.9-0.6-1.3-1c-0.8-0.8-1.5-2-2-3.5
		c-1.2-3-1.7-7-2.2-11c-0.5-4-0.8-8.2-1.7-12.6c-0.2-1.1-0.5-2.1-0.9-3.4c-0.3-0.8-0.8-2.5-1.7-3.7c-0.9-1.3-2-2.4-3.1-3.1
		c-1.2-0.8-2.3-1.4-3.5-1.7c-4.5-1.5-8.3-1.2-11.6-1c-3.4,0.3-6.3,0.9-8.9,1.4c-2.6,0.5-4.8,1.1-6.6,1.5c-3.7,0.9-5.8,1.4-5.8,1.4
		s2.1,0.4,5.9,0.8c1.9,0.2,4.2,0.4,6.8,0.5c2.6,0.2,5.5,0.4,8.5,0.8c3,0.4,6.3,1,8.6,2.2c1.1,0.6,1.8,1.3,2.1,2
		c0.2,0.4,0.2,0.6,0.4,1.7c0.1,0.6,0.2,1.5,0.3,2.4c0.3,2.9,0.4,6.3,0.6,9.8c-5.6,1.6-15.4,9-16.3,17c1.4-1.1,10.3-7.1,17.7-5.4
		c0.3,1.4,0.7,2.9,1.3,4.4c0.9,2.5,2.4,5.1,4.6,7.3c1.1,1.1,2.4,2.1,3.8,2.8c0.9,0.5,1.8,1,2.7,1.4c1,0.5,1.8,1,2.6,1.4
		c0.9,0.5,1.7,0.9,2.5,1.4c1.7,1,3.3,2,4.9,3c1.7,1.1,3.3,2.2,4.9,3.2c1,0.6,1.4,0.9,2.2,1.5c0.8,0.5,1.5,1.1,2.3,1.6
		c3.1,2.1,6.1,4,9,5.6c1.8,1,3.6,1.9,5.4,2.6c0.4,1.8,0.8,3.9,0.8,5.9c0,0,0,0.1,0,0.1c-0.6,1.4-1.7,2.5-3.2,3.4
		c-3,1.9-7.7,3-12.9,3.5c-1.3,0.1-2.6,0.1-3.9,0.1l-0.5,0l-0.2-0.3c0,0,0,0,0,0l-1.1,0.3c-0.3,0-0.8,0.1-1,0l-0.8-0.1l-0.8-0.1
		l-1-0.2c-0.6-0.2-1.3-0.2-1.9-0.4c-1.3-0.3-2.6-0.7-3.9-1.1c-2.6-0.8-5.1-1.9-7.6-3c-1.2-0.7-2.4-1.2-3.5-1.9
		c-1.1-0.7-2.3-1.3-3.3-2.1c-1-0.8-2.1-1.4-3-2.2c-0.9-0.8-1.9-1.5-2.7-2.4c-0.8-0.8-1.6-1.7-2.4-2.5c-0.7-0.9-1.3-1.7-2-2.6
		c-0.7-0.8-1.1-1.7-1.6-2.6c-0.5-0.8-1.1-1.6-1.4-2.4c-0.4-0.8-0.7-1.6-1-2.3c-0.2-0.4-0.3-0.7-0.5-1c-0.1-0.3-0.2-0.7-0.3-1
		c-0.4-1.3-0.8-2.3-1-3c-0.3-0.7-0.4-1.1-0.4-1.1s-0.1,0.4-0.2,1.1c-0.1,0.7-0.4,1.8-0.5,3.2c0,0.4-0.1,0.7-0.1,1.1
		c0,0.4,0,0.8,0,1.2c0,0.9,0,1.8,0.1,2.8c0,1,0.3,2.1,0.5,3.2c0.1,0.6,0.3,1.1,0.4,1.7c0.1,0.6,0.3,1.2,0.5,1.8
		c0.4,1.2,1,2.4,1.5,3.7c0.6,1.2,1.4,2.4,2.1,3.7c0.8,1.3,1.8,2.4,2.7,3.6c1,1.2,2.2,2.2,3.3,3.4c1.1,1.1,2.5,2,3.8,3.1
		c1.3,1,2.7,1.8,4.2,2.7c2.9,1.6,6,3,9.2,4c1.6,0.5,3.2,0.9,4.9,1.3c0.8,0.2,1.7,0.3,2.5,0.4l1.3,0.2l1.5,0.1l1.5,0.1
		c0.5,0,0.8,0,1.2,0l1.1-0.1l0.3,0l0,0l0.1,0l0.2,0l0.3,0l0.6-0.1c1.6-0.2,3.2-0.5,4.7-0.9c2.8-0.7,5.4-1.6,7.8-2.8
		c13.4-2.1,14.8,26.2,13.7,34.5c-1.9,2.3-4.4,5.1-6.7,8c-1.7,2.2-3.3,4.5-4.5,7c-0.5,1.2-1,2.5-1.2,3.7c-0.3,1.2-0.3,2.4-0.3,3.5
		c0.1,1.1,0.3,2,0.6,2.8c0.3,0.8,0.6,1.4,0.9,2c0.3,0.5,0.6,0.9,0.7,1.1c0.2,0.3,0.3,0.4,0.3,0.4s-0.1-0.2-0.2-0.5
		c-0.1-0.3-0.3-0.7-0.4-1.3c-0.1-0.6-0.3-1.2-0.3-2c-0.1-0.8,0-1.6,0.1-2.5c0.2-0.9,0.5-1.8,0.9-2.8c0.5-0.9,1.1-1.8,1.8-2.7
		c1.5-1.8,3.3-3.4,5.4-4.9c4-3.1,8.5-5.7,11.9-8.7c0.4,0.3,0.8,0.7,1.2,1c2.6,1.8,5.2,2.9,7.7,3.7c2.4,0.8,4.8,1.4,7,1.9
		c1.1,0.2,2.2,0.5,3.2,0.7c1,0.2,2,0.5,2.9,0.8c2,0.5,3.9,1.1,5.7,1.7c3.7,1.2,7,2.4,9.9,3.5c2.9,1.2,5.4,2.2,7.4,3.3
		c1.9,1.1,3.4,2.1,3.9,3c0.5,1-0.2,1.7-0.1,1.6c0,0,0.2-0.1,0.4-0.3c0.2-0.2,0.5-0.8,0.4-1.5c-0.2-1.4-1.5-3-3.2-4.7
		c-1.7-1.7-4-3.5-6.7-5.3c-2.7-1.9-5.8-3.8-9.4-5.7c-1.8-0.9-3.7-1.9-5.7-2.8c-1-0.4-2-0.9-3.2-1.3c-1-0.4-2.1-0.8-3.2-1.1
		c-4.1-1.5-8.6-3.1-11.2-5.3c-1.3-1.1-2.4-2.5-3.3-4.3c-1-1.8-1.8-4-2.6-6.2c-0.8-2.3-1.5-4.7-2.2-7.1l-1.1-3.7
		c-0.3-1.2-0.6-2.2-0.8-3.3c-0.8-4.4-0.7-8.6,0.7-12.3c1.4-3.7,4-6.9,7.3-9.4c3.3-2.5,7.2-4.4,10.9-5.4c0.4-0.1,1-0.3,1.5-0.4
		c0.2,0,0.7-0.2,1-0.2c0.7-0.1,1.5-0.1,2.3-0.1c1.6,0.1,3.2,0.6,4.8,1.2c3.2,1.3,6,3.3,8.5,5c2.5,1.8,4.6,3.6,6.4,5.1
		c3.5,3,5.6,4.6,5.6,4.6s-0.3-0.6-0.9-1.7C170.9,310.2,170.1,308.6,168.8,306.7 M89.4,311l0.1,0.2C89.4,311.1,89.3,311,89.4,311
		L89.4,311"/>
</g>
<g id="Layer_1_00000085240866809106323840000003321228441513666200_">
	<path class="st0" d="M226,210.5c-6,4.4-17.7,39.7-14.5,59.6c0.6-0.9,1.2-1.8,1.9-2.7c2.9-3.8,6-7.1,9.2-9.7
		c2.8-2.4,5.7-4.3,8.4-5.7c8.4-8,9.2-6.3,6.4-15c-0.5-0.8-1-1.5-1.4-2.1c-0.5-0.9-0.8-1.6-1-2c-0.2-0.5-0.3-0.7-0.3-0.7
		s0.2,0.2,0.5,0.6c0.3,0.4,0.8,1,1.4,1.8c0.9,1,2.1,2.3,3.8,3.6c1.1,0.7,2.1,1.4,3.1,1.9c3,1.4,7,1.8,11.2,0.5
		c4.5-1.3,9.3-4.3,14.1-8c2.4-1.9,4.9-3.9,7.3-6.2c0.6-0.6,1.3-1.1,1.9-1.7c0.6-0.6,1.2-1.1,1.8-1.7c1.2-1.2,2.3-2.4,3.4-3.7
		c4.4-5.1,7.9-11.1,8.7-17.7c0.4-3.3,0.1-6.6-0.8-10c-0.5-1.7-1-3.3-1.8-5.1c-0.8-1.9-1.6-3.8-2.4-5.7c-1.6-3.9-3.3-8-4.4-12.5
		c-1.1-4.5-1.7-9.5-1.2-14.3c0.2-2.4,0.7-4.8,1.3-7.1c0.6-2.3,1.5-4.8,2.3-6.6l0.7-1.6l0.6-1.3c0.4-0.9,0.7-1.7,1-2.6
		c0.6-1.7,1-3.4,1.2-5.1c0.4-3.3,0.1-6.3-1.3-8.9c-0.7-1.3-1.6-2.6-2.7-3.8c-0.6-0.6-1.2-1.2-1.8-1.8c-0.7-0.6-1.2-1.1-2.2-1.8
		c-2.2-1.8-3.5-3.7-4.7-5.6c-1.2-1.9-2.2-3.8-3-5.8c0,0-4-10.1-4.1-11.4c-0.2-1.1-0.6-2.7-1.7-4.3c-1.1-1.7-3.1-3.5-5.8-5.6
		c-1.3-1-2.9-2.2-4.4-3.5c-1.5-1.4-3-3-4.1-5c-0.5-1-1-2-1.3-3.1l-0.4-1.3c-0.1-0.3-0.2-0.7-0.4-1c-0.6-1.4-1.4-2.6-2.4-3.4
		c-1-0.8-2.3-1.2-3.6-1.1c-1.3,0.1-2.6,0.6-3.6,1.3c-2.2,1.4-3.5,3.3-4.4,4.6c-0.8,1.4-1.2,2.2-1.2,2.2s0.2-0.9,0.8-2.4
		c0.6-1.5,1.6-3.7,3.7-5.8c1.1-1,2.5-2,4.3-2.5c1.8-0.5,4-0.4,5.9,0.5c1.9,0.9,3.5,2.5,4.7,4.3c0.3,0.4,0.6,0.9,0.9,1.4l0.6,1.2
		c0.3,0.7,0.8,1.2,1.2,1.8c1.8,2.2,4.8,3.6,7.9,5.2c2.1,1.1,4.3,2.3,6.3,3.8c0.6-1.9,1.4-3.5,2.4-5.2l0.7-1.2l0.7-1l0.6-0.9
		c0.2-0.3,0.3-0.5,0.5-0.8c1.2-2.1,1.3-4.3,0.7-6.7c-0.6-2.4-1.8-4.7-3.1-6.9c-2.5-4.3-5.1-8.2-6.4-11.9c-0.6-1.8-0.9-3.7-0.7-5.2
		c0.2-1.5,0.8-2.7,1.3-3.6c0.6-0.9,1.1-1.4,1.5-1.8c0.4-0.3,0.6-0.5,0.6-0.5s-0.2,0.2-0.5,0.6c-0.3,0.4-0.7,1.1-1.1,1.9
		c-0.4,0.9-0.7,2-0.6,3.4c0.1,1.3,0.5,2.8,1.3,4.3c1.6,3.1,4.6,6.3,7.8,10.5c1.6,2.1,3.3,4.5,4.5,7.5c0.6,1.5,1.1,3.3,1.1,5.2
		c0,1.9-0.3,3.9-1.1,5.7c-0.2,0.5-0.4,0.9-0.6,1.3l-0.6,1.1l-0.6,1.1l-0.4,0.9c-0.6,1.3-1.1,2.7-1.4,4.1c-0.6,2.9-0.8,5.9-0.3,9.1
		c0.5,3.1,1.4,6.3,2.9,9.3c0.7,1.5,1.6,2.9,2.6,4.3c0.9,1.3,2.1,2.6,3,3.2c0.6,0.5,1.7,1.2,2.5,1.9c0.9,0.7,1.8,1.4,2.6,2.3
		c1.7,1.7,3.3,3.6,4.6,5.9c0.6,1,1.1,2.2,1.5,3.3c2-0.9,4.2-1.8,6.5-2.6c1.7-0.6,3.5-1,5.2-1.3c1.7-0.3,3.4-0.3,4.8,0.1
		c0.7,0.2,1.3,0.5,1.8,0.9c0.4,0.4,0.7,0.9,0.8,1.2c0.3,0.8,0.2,1.2,0.2,1.2c0,0-0.1-0.4-0.6-1c-0.2-0.3-0.6-0.5-1-0.7
		c-0.4-0.2-0.9-0.2-1.5-0.2c-2.3,0.2-5.2,1.9-7.8,3.9c-2.6,2-5.1,4.3-6.7,6c-0.1,0.1-0.2,0.2-0.3,0.4c0,1.3,0,2.6-0.2,3.8
		c-0.3,2.5-0.8,4.8-1.5,7.1c-0.4,1.1-0.7,2.2-1.2,3.3l-1.2,2.9c-0.9,2.1-1.3,3.6-1.8,5.3c-0.4,1.8-0.8,3.6-0.9,5.3
		c-0.3,3.6,0,7.1,0.9,10.7c0.9,3.6,2.3,7.3,3.7,11.1c0.8,1.9,1.5,3.9,2.3,5.8c0.8,2,1.5,4.3,2,6.5c1,4.5,1.3,9.3,0.5,13.8
		c-0.8,4.6-2.5,8.8-4.7,12.4c-0.7,1.2-1.4,2.2-2.2,3.3c1.6-0.7,3.3-1.5,5.2-2.5c3.8-2,8.1-4.5,12.7-7.2c2.3-1.4,4.6-2.8,6.8-4.3
		c1.5-1,2.7-1.8,4-2.7l-2.1,1.3c5.7-6.4,2.3-11.8-5-13c6.3-3.2,14.6,3.4,20,4.1l-9.9,5.9c0.6-0.3,1.3-0.6,2-0.9
		c2.3-1,7.4-1.7,9.1-2.7c2.8-1.7,6.5-4.1,10-6.8c1.6-2.6,3.2-5.3,4.5-8.1c2.4-4.9,9.3-21,1.7-27.7c-2.9-0.5-5.8-1.3-8.5-2.5
		c-0.5,2.6-1.1,5.4-1.9,8.2c-1.3,4.6-3.2,9.1-5.2,12.1c-1,1.5-2.1,2.6-3,3.1c-0.9,0.6-1.5,0.7-1.4,0.7c0,0,0.5-0.3,1.1-1.1
		c0.6-0.8,1.3-2,1.8-3.6c1-3.2,1.4-7.6,1.4-12.1c0-4.4-0.5-8.9-1.1-12c-0.1-0.5-0.2-0.9-0.3-1.3c-3.3-3.6-5.8-7.5-3.9-12.3
		c2.9-7.5,3.1-9.1-2.1-21.7c-1.6-2.1-4.5-6.2-4.6-6.4c-0.3-0.6-1.2-1.6-2-2c-2.8-1.7-7.8-3.6-12.7-5.6c-4.9-2-9.9-4.4-13-7.2
		c-0.8-0.7-1.4-1.4-1.9-2c-0.5-0.7-0.9-1.3-1.1-1.8c-0.5-1.1-0.6-1.7-0.6-1.7c0,0,0.3,0.6,1,1.5c0.3,0.4,0.8,0.9,1.4,1.4
		c0.6,0.5,1.3,0.9,2.2,1.4c3.3,1.7,8.3,2.7,13.5,3.3c4.6,0.6,9.3,1.1,13.3,2c0-2.3,0.3-4.4,0.5-6.2c0.7-5.5,0.9-6.3-6.2-8.3
		c-26.9-7.6-28.6-16.5-23.6-35.5c0.4-1.3,0.5-2.7,0.6-3.9c-2.1-1.7-4.2-3.5-6.3-5.3c-6.8-5.8-15-14.8-18.8-16.1
		c-2.7-0.9-7.8-1.9-10.5-0.9c-4.6,1.7-12.3,13-15.6,16.7c-1.6,1.9-3,3.9-3.5,5.9c-0.3,1-0.3,2.1-0.2,3c0.1,0.5,0.2,1,0.4,1.4
		c0.1,0.5,0.3,0.9,0.6,1.3c0.4,0.9,1,1.6,1.4,2.2c0.5,0.6,1,1.2,1.4,1.6c0.9,0.8,1.4,1.3,1.4,1.3s-0.6-0.3-1.6-0.9
		c-0.5-0.3-1.1-0.7-1.8-1.2c-0.6-0.5-1.4-1.1-2.1-2c-0.4-0.4-0.7-0.8-1.1-1.4c-0.4-0.5-0.6-1.1-0.9-1.7c-0.5-1.2-0.9-2.7-0.8-4.1
		c0-3,1.1-5.9,2.4-8.6c1.3-2.6,2.9-5,4.3-7.1c5.9-9-12.1-10-15-9.7c-4.8,0.5-8.8,4.3-10.7,7.1c-1.8,2.7-2.2,6.4-1,10.3
		c1.2,4.2,2.6,11.4,3.3,19.5c0.5-0.5,1.1-1.1,1.6-1.5c0.7-0.6,1.4-1.2,2.1-1.8c1.3-1.1,2.8-2,4-2.8c0.6-0.4,1.1-0.6,1.6-0.9
		c0.5-0.3,0.9-0.5,1.3-0.7c0.7-0.4,1.1-0.6,1.1-0.6s-0.3,0.3-0.8,0.9c-0.3,0.3-0.6,0.7-0.9,1.1c-0.3,0.4-0.8,0.9-1.2,1.4
		c-0.4,0.5-0.8,1.1-1.2,1.8c-0.4,0.6-0.9,1.2-1.2,2c-0.4,0.7-0.8,1.5-1.2,2.2c-0.4,0.8-0.7,1.6-1.1,2.4c-0.7,1.5-1.2,3.2-1.8,4.7
		c-0.4,1.6-0.9,3-1.2,4.2c-0.3,1.2-0.5,2.3-0.6,3c0,0.1,0,0.2-0.1,0.3c-0.2,5.5-0.9,10.8-2.3,15.5c-2.2,7.4-0.5,25.8,1.6,35.9
		c0.1-0.1,0.3-0.1,0.4-0.2c1.1-0.4,2.2-0.8,3.2-1.1c2.1-0.6,4.2-1,6-1.3c1.9-0.4,3.6-0.8,5-1.2c0.7-0.2,1.4-0.4,2-0.6
		c0.6-0.2,1.1-0.4,1.5-0.6c0.8-0.3,1.3-0.5,1.3-0.5s-0.4,0.3-1.1,0.9c-0.3,0.3-0.7,0.7-1.3,1c-0.5,0.4-1.1,0.9-1.7,1.3
		c-1.3,0.9-2.9,1.9-4.5,2.8c-1.7,1-3.4,2-5,3.1c-0.8,0.5-1.5,1.1-2.1,1.7c-0.3,0.3-0.6,0.6-0.9,0.9c-0.2,0.3-0.4,0.6-0.6,0.9
		c0,0,0,0.1-0.1,0.1c1.1,2.2,0.4,4.3-0.5,6c0,0.1,0,0.2,0,0.2l-0.1,0c-0.2,0.3-0.4,0.7-0.5,0.9c-2.5,4.5-4.3,8.6-0.3,13.1
		c3.7,4.2,5.3,8.1,4.8,12c-0.6,5.5-4.9,8.6-7.5,10.5c-0.4,0.3-0.8,0.6-1.1,0.8c-0.9,3.1-0.7,13.5-0.6,17c0,1.2,0.1,2.2,0.1,2.9
		c0,6.5,2,9.9,3.1,10.8c0,0,19.6-6.1,19.6-6.1c0.1-0.2,0.4-0.2,0.7-0.2l1.1-0.3c0.3-0.5,0.6-0.1,1.2-1.4c0.3-0.3,0.4-0.7,0.5-1.2
		c0-1,0.1-1.9,0.3-2.8c0.7-4.4,2-8.5,3.7-12.7c1.7-4.2,3.8-8.3,6.2-12.3c0.1-0.2,0.3-0.5,0.4-0.7l0.2-0.4c0.2-0.3,0.3-0.6,0.4-0.9
		c0.2-0.6,0.4-1.2,0.4-1.9c0.1-1.3,0-2.9-0.5-4.7c-0.5-1.8-1.2-3.6-2-5.6c-0.8-2-1.8-4-2.6-6.2c-0.9-2.2-1.8-4.6-2.2-7.4
		c-0.2-1.4-0.3-3,0-4.7c0-0.4,0.2-0.9,0.3-1.4l0.2-0.7c0.1-0.2,0.1-0.3,0.2-0.4l0.2-0.4l0.2-0.5l0.1-0.1l0.3-0.5
		c1.4-2.8,1.6-5.8,0.6-8.9c-0.9-3.1-2.7-6-4.6-8.6c-1.9-2.6-3.9-5-5.7-7.1c-1.8-2.1-3.3-4-4.5-5.7c-1.2-1.7-1.9-3.2-2.1-4.3
		c-0.2-1.2,0.2-1.7,0.2-1.7c0,0,0,0.1,0,0.4c0,0.3,0.1,0.7,0.3,1.1c0.4,0.9,1.5,2,3,3.2c3,2.5,7.8,5.5,13,10.4
		c2.6,2.5,5.3,5.4,7.3,9.6c0.5,1.1,0.9,2.3,1.3,3.5c0.9-0.2,1.8-0.5,2.7-0.6c0.6-0.1,1.2-0.2,1.9-0.3c0.6-0.1,1.2-0.1,1.8-0.1
		c0.6,0,1.2,0,1.7,0.1c0.5,0,1.1,0.1,1.5,0.3c0.5,0.1,0.9,0.3,1.2,0.4c0.4,0.1,0.6,0.3,0.8,0.5c0.4,0.3,0.6,0.5,0.6,0.5
		s-0.3,0-0.8,0c-0.2,0-0.5,0-0.8,0.1c-0.3,0.1-0.7,0.1-1,0.3c-0.4,0.1-0.7,0.3-1.1,0.5c-0.4,0.2-0.8,0.5-1.2,0.8
		c-0.4,0.3-0.8,0.6-1.2,0.9c-0.4,0.3-0.8,0.7-1.1,1.1c-1.5,1.5-2.8,3.2-3.7,4.5c-0.5,0.6-0.8,1.2-1.1,1.6c-0.1,0.2-0.2,0.3-0.2,0.4
		c-0.1,0.1-0.1,0.2-0.1,0.2l-0.3-0.3c-0.1,0.3-0.2,0.6-0.3,0.9l-0.4,0.9l-0.1,0.2c0.2-0.5,0.1-0.1,0.1-0.2l0,0.1l-0.1,0.4
		c0,0.1-0.1,0.3-0.1,0.3l0.1,0c0,0,0,0,0,0.2c0,0.4,0.1,1,0.3,1.7c0.4,1.4,1.1,3.2,2.1,5c0.9,1.9,2,3.9,3,6c1,2.1,2,4.5,2.8,7.1
		c0.7,2.6,1.2,5.6,0.9,8.7c-0.2,1.6-0.6,3.1-1.1,4.6c-0.3,0.7-0.6,1.5-1,2.1l-0.6,1c-0.2,0.3-0.3,0.5-0.5,0.7
		c-2.3,3.5-4.4,7.1-6.2,10.7c-0.5,1-1,2-1.5,3c2.6,5.8,5.2,18.7,3.4,24.8c0.6,2,0.8,4,0.6,5.6c-0.1,2.2-0.9,3.8-1.5,4.7
		c-0.3,0.5-0.6,0.8-0.8,1c-0.2,0.2-0.3,0.3-0.3,0.3s0.2-0.5,0.5-1.6c0.2-1,0.3-2.5-0.1-4.3c-0.5-1.8-1.4-3.8-2.9-5.8
		c-1.5-2-3.5-4.2-5.9-5.9c-0.3-0.2-0.5-0.3-0.8-0.6c-1.3,0.1-2.8,0.2-3.2,0.3c-0.7,0.1-1.3,0.3-2,0.2c-0.3-0.1-2.2,0-4.4,0
		L226,210.5 M333.5,207.5C333.5,207.4,333.5,207.4,333.5,207.5C333.6,207.4,333.5,207.4,333.5,207.5
		C333.5,207.4,333.5,207.5,333.5,207.5 M333.7,207.4C333.8,207.3,333.9,207.1,333.7,207.4L333.7,207.4 M246.2,448.6
		c0.1,0,0.2,0,0.3-0.1c0,0,0,0,0.1-0.1l-0.5-0.1h0c0.1,0-0.2,0.1,0.2,0.2L246.2,448.6z M211.8,312.6c-0.1,5,0,10,0.5,14.8
		c0.3,2.4,0.6,4.7,1.1,6.8c0.5,2.1,1.2,4.1,2,5.5c1.5,2.5,2.9,2.2,5.3,1.8c0.4-0.1,0.8-0.2,1.2-0.3c3.9-1.1,7.6-3.2,11.1-5.3
		c3.3-2,6.4-4,9.5-5.4c3-1.5,6.1-2.3,8.6-2.3c2.6,0.1,4.3,1,5.4,1.6c0.6,0.3,0.9,0.7,1.2,0.8c0.2,0.2,0.4,0.3,0.4,0.3
		s-0.2-0.1-0.5-0.2c-0.3-0.1-0.7-0.3-1.3-0.4c-1.1-0.3-2.9-0.5-4.9-0.1c-2,0.5-4.3,1.8-6.6,3.6c-2.4,1.9-4.9,4.3-7.9,7
		c-3,2.6-6.5,5.5-11.2,7.7c-0.6,0.3-1.2,0.5-1.8,0.8c-0.6,0.2-1.5,0.5-2,0.6l-0.8,0.2l-0.2,0.1l-0.1,0l-0.2,0l-0.2,0l-0.6,0.1
		c-0.9,0.1-1.8,0.2-2.7,0.1c-0.4,0-0.9-0.1-1.3-0.2c0.9,7.5-0.1,15-1.1,21.8c-1.3,9.5-2.5,17.8,1.2,24.4c0.6-0.4,1.2-0.7,1.8-1.1
		c3.8-2.2,7.4-3.7,11-5.2c7.1-2.9,13.8-5.1,19.5-7c5.7-1.9,10.4-3.4,13.6-4.8c1.6-0.7,2.8-1.3,3.4-1.9c0.7-0.6,0.7-1.2,0.7-1.2
		c0,0,0.2,0.6-0.3,1.5c-0.5,0.9-1.4,2.1-2.8,3.3c-2.7,2.4-7,5.3-12.2,8.4c-2.6,1.6-5.5,3.2-8.5,4.8c-3,1.6-6.2,3.4-9.4,5.1
		c-3.2,1.8-6.6,3.6-9.5,5.6c-1.4,1-2.9,2.1-3.4,2.8c-1,1.2-1.6,2.4-1.9,3.2c-0.2,0.9-0.2,1.3,0.1,2c0.3,0.8,1.1,1.8,2.2,2.7
		c2.2,2,5.4,3.7,8.4,5.2c2.2,1.1,5.5,1.5,8.6,1.7c3.1,0.1,6.3,0,9.2-0.2c2.9-0.2,5.6-0.4,8-0.7c2.4-0.3,4.6-0.5,6.3-0.7
		c3.5-0.4,5.6-0.6,5.6-0.6s-1.7,1.2-4.9,2.8c-3.2,1.7-7.8,3.9-13.8,5.7c-3,0.9-6.3,1.8-10,2.2c-1.9,0.2-3.8,0.4-5.9,0.3
		c0,0-0.1,0-0.1,0c-1.8,3.4-3.2,8.3-1.9,14.5c-3.2-5.3-4.7-11.7-5.2-16.6c-2.1-4-4.6-3.9-7.2-4.1c-5.2,15.9,2.2,22.2,2.5,22.4
		l2.3,1.7l-0.1,2.9c-0.4,9.3,4.6,16.7,9.6,19c2.7,1.2,9.5,3.6,12.6-1.4l0.5-0.8c-0.5-0.8-0.9-1.6-1.3-2.6c-1.3-2.8-2.3-6.1-2.9-10
		c-0.3-1.9-0.5-3.9-0.3-6.1c0.1-1.1,0.2-2.3,0.7-3.6c0.2-0.7,0.6-1.4,1.1-2.1c0.5-0.7,1.3-1.5,2.5-2c0.6-0.2,1.1-0.4,1.7-0.5
		c0.3,0,0.8,0,1,0l0.2,0l0.1,0l0.3,0l1.3,0.1c0.9,0.1,1.7,0.1,2.6,0.1c0.8,0.1,1.7,0,2.5,0c0.8,0,1.7-0.1,2.5-0.1
		c0.8,0,1.7-0.1,2.5-0.2c0.8-0.1,1.6-0.1,2.4-0.2c1.6-0.2,3.1-0.3,4.6-0.4c2.9-0.2,5.3-0.3,7.1-0.3c1.7,0,2.8,0.1,2.8,0.1
		s-0.8,0.6-2.3,1.5c-1.5,0.9-3.6,2.1-6.4,3.3c-1.3,0.6-2.9,1.1-4.5,1.7c-1.6,0.5-3.4,1-5.3,1.3c-1.9,0.3-4,0.5-6.1,0.4
		c-1.1,0-2.1-0.2-3.1-0.4l-1-0.3c0,0.1-0.1,0.1-0.1,0.2c-0.2,0.5-0.4,1.2-0.6,1.9c-0.3,1.5-0.4,3.3-0.4,4.9
		c-0.1,3.4,0.2,6.6,0.6,9.4c0.1,0.7,0.2,1.3,0.3,1.9l1.4-0.1c26.1-2.1,39.4-16.6,44.5-25.8c-1.3-1.2-2.6-2.8-3.2-5.7
		c-0.1,0-0.1,0-0.1,0s0-0.1,0.1-0.2c0-0.1-0.1-0.2-0.1-0.3l0.2,0c0.1-0.3,0.3-0.8,0.5-1.2c0.1-0.2,0.2-0.5,0.3-0.8
		c0.1-0.3,0.2-0.7,0.3-1c0.2-0.7,0.4-1.4,0.6-2.2c0.2-0.8,0.4-1.6,0.5-2.5c0.1-0.5,0.2-0.9,0.3-1.3c0.1-0.5,0.2-0.9,0.3-1.4
		c0.2-0.9,0.4-1.9,0.6-2.9c0.2-1,0.4-2,0.7-3c0.2-1.1,0.5-2.1,0.8-3.1c0.3-1,0.6-2,0.9-3c0.3-1,0.7-2,1-2.9c0.1-0.3,0.2-0.6,0.4-0.9
		c-0.1-1.1-0.4-2.2-0.7-3.1c-0.2,0-0.3,0.1-0.5,0.1c-1.8,0.3-3.6,0.4-5.4,0.5c-3.5,0.2-7,0.1-10.2-0.1c-6.5-0.4-12.4-1.2-17.3-1.7
		c-4.9-0.5-9-0.7-11.5,0c-1.2,0.4-2.1,1-2.6,1.6c-0.5,0.6-0.7,1-0.7,1s0-0.1,0-0.3c0-0.2,0-0.6,0.1-1c0.1-0.9,0.7-2.2,2-3.4
		c1.3-1.2,3.1-2.2,5.3-3c2.1-0.8,4.6-1.4,7.2-1.8c5.3-0.9,11.3-1.3,17.6-1.6c3.1-0.2,6.3-0.3,9.5-0.6c1.6-0.1,3.1-0.3,4.7-0.5
		c0.8-0.1,1.4-0.2,2.3-0.3c0.6-0.1,1.2-0.2,1.9-0.4c2.5-0.7,5-2,7.3-3.7c2.3-1.7,4.5-3.7,6.3-5.9c3.9-4.5,6.7-9.5,8.2-14
		c0,0,0,0,0,0c-3.1-6.2-12.4-10.2-13.8-22c7.4,7.7,14.3,5.5,20.4,1.5c3.5-4.8,6.3-9.4,6.9-11.9c0.7-2.6-13.1-2.8-7.7-3.7
		c6.8-1.1,12.1-6.5,12.4-7.1c0.7-1.2,3.2-4.9,4.1-6.2c1.7-2.6,10.1-11.4,13-13.2c7.7-4.6,13.9-7.2,22.1-5.9c1.4,0.2,4.7-1.9,4.8-3.2
		c0.4-3.6,0.5-5.9,0.5-6c0.4-9-3-13.7-6.4-18.3c-1.4-1.9-2.9-4-4-6.4c-2.2,2.8-4.1,5.6-5.2,7.9c-0.6,1.3-1,2.5-1.1,3.3
		c0,0.4-0.1,0.8,0,1c0,0.2,0,0.4,0,0.4c0,0-0.3-0.4-0.5-1.3c-0.2-0.9-0.2-2.2-0.1-3.8c0.3-3.2,1.5-7.2,2.9-11.2
		c1.4-3.9,3-7.8,4.3-10.6c0.6-1.3,1.1-2.4,1.5-3.2c5.1-19.8,7.6-65-9.6-86.6c-0.1,5.1-1.5,10.9-4.3,17.4c-0.1,0.1-0.1,0.3-0.2,0.4
		c-2,4.2-7.7,11.7-6.7,16.2c1,4.5,9.1,7.9,12.7,10.8c1.7,1.3,3.1,2.6,4.2,3.8c0.9,1,1.6,2,1.8,2.8c0.1,0.4,0.1,0.8-0.1,0.9
		c-0.1,0.2-0.2,0.2-0.2,0.2c0,0,0.3-0.4-0.2-0.8c-0.4-0.4-1.4-0.8-2.5-1.3c-2.4-0.9-5.9-1.9-10-3c-4.2-1.1-9.1-2.3-14.2-3.2
		c-2.5-0.4-5.1-0.8-7.5-0.9c-1.2,0-2.3,0.1-3,0.2c-0.3,0.1-0.4,0.1-0.5,0.2l-0.7,0.6c-2.8,2.4-5.4,4-8.1,5.5c-2.7,1.5-5.4,2.8-8,3.9
		c-5.3,2.2-10.5,3.8-15.1,4.6c-0.8,0.1-1.5,0.3-2.3,0.4c4.6,3.2,9.3,10.1,9.1,12.9c-4.8-3.3-14.9-7.1-22.7-7.5
		c-1.7,1.5-3.5,2.9-5.1,4.1c-2.8,2.1-5.6,4-8.4,5.7c-3.6,2.2-7.2,4-10.7,5.3c-2.3,2.9-3.9,6.3-2.9,9.6c1.3,0.7,2.6,1.5,4,2.4
		c1.5,0.9,2.9,1.9,4.4,2.9c1.5,1.1,2.9,2.1,4.3,3.3c1.4,1.2,2.7,2.4,4,3.8c1.2,1.3,2.4,2.8,3.4,4.3c0.9,1.6,1.8,3.1,2.2,4.9
		c0.2,0.8,0.3,1.8,0.4,2.6c-0.1,0.9,0,1.6-0.3,2.4c-0.1,0.3-0.2,0.7-0.3,1c-0.2,0.3-0.3,0.6-0.5,0.8c-0.3,0.5-0.7,0.9-1,1.2
		c-0.6,0.7-1.3,1-1.7,1.2c-0.4,0.2-0.6,0.3-0.6,0.3s0.1-0.2,0.1-0.7c0.1-0.4,0.3-1.1,0.3-1.8c0-0.4,0-0.7-0.1-1.1
		c0-0.2-0.1-0.4-0.1-0.6c-0.1-0.2-0.2-0.4-0.2-0.6c-0.3-0.7-0.8-1.4-1.5-2.1c-0.6-0.7-1.7-1.4-2.6-2.2c-1.1-0.8-2.2-1.6-3.5-2.4
		c-1.3-0.8-2.7-1.7-4-2.6c-1.4-0.9-2.8-1.9-4.3-2.9c-1.4-1-2.9-2.1-4.2-3.2c-1.4-1.1-2.7-2.3-4-3.5c-1.3-1.2-2.4-2.5-3.5-3.8
		c-1.1-1.3-2-2.6-2.7-4c-0.1-0.2-0.2-0.4-0.3-0.6c-1-0.7-2.1-1.2-3.3-1.6c-0.6,0.2-1.2,0.5-1.9,0.7c-2,0.9-4.3,2.3-6.7,4.2
		c-2.4,1.9-4.8,4.3-7.2,7.2c-2.4,2.8-4.7,6.1-6.8,9.8c-1.6,2.7-3,5.7-4.2,8.8l0,0l0,0c-0.3,2-0.8,3.9-1.4,5.8
		c-0.4,1.2-0.8,2.5-1.2,3.8c-0.3,2.3-0.6,4.7-0.8,7.2C212.2,302.5,211.9,307.6,211.8,312.6 M299.4,433.1c-0.1,0-0.1-0.1-0.2-0.1
		c2.7-0.8,10.7-6.1,24.6-23.1c16-19.5,10.3-29.9,10.1-30.2l-0.3-0.4c-0.7,0.2-1.5,0.3-2.3,0.3c-1.4,0-2.8-0.1-4.2-0.6
		c-1.1-0.4-2.1-0.9-2.9-1.5c-1.1,4-2.8,8.1-5.4,12c-2,2.9-4.3,5.8-7.3,8.4c-2.1,1.8-4.5,3.4-7.2,4.7c-0.2,1.3-0.4,3-0.8,4.8
		c0.5,1.7,0.9,3.7,0.9,5.8c0.1,1.2,0,2.5-0.1,3.7c-0.1,1.3-0.4,2.6-0.6,3.8c-0.4,1.3-0.7,2.5-1.2,3.8c-0.5,1.2-1.1,2.4-1.8,3.5
		c-0.4,0.5-0.7,1.1-1.1,1.6c-0.4,0.5-0.8,1-1.3,1.4c-0.8,0.9-1.8,1.6-2.6,2.3c-0.3,0.2-0.7,0.4-1,0.6L299.4,433.1z M334.7,370.1
		c2.9,0.2,5.7,0.2,8.6-0.2c5.8-0.9,10.9-3.6,15.2-7.6c9.7-9.2,14.7-22.9,18.1-35.4c0.4-1.6,3.9-19.2,4.2-19.2c-1.2,0-2.4,0.1-3.6,0
		c-2.3,0-4.7,0-7.1,0.1c-0.6,0-1.2,0.1-1.8,0.1c-0.6,0.1-1.1,0.1-1.8,0.2l-0.5,0.1l-0.3,0.1c-0.2,0.1-0.4,0.1-0.7,0.2
		c-0.4,0.1-0.9,0.3-1.3,0.5c-1.8,0.9-3.8,2.2-5.6,4c-1.9,1.7-3.7,3.8-5.5,5.9c-1.6,1.9-3,3.8-4.5,5.8c-0.6,2.4-0.9,4.4-1.1,6
		c0.8,0.2,1.7,0.4,2.5,0.7c1.8,0.6,3.6,1.4,5.1,2.2c0.8,0.5,1.5,0.9,2.1,1.5c0.3,0.3,0.6,0.5,0.9,0.7c0.3,0.3,0.5,0.5,0.8,0.8
		c0.5,0.5,0.9,1,1.2,1.5c0.3,0.4,0.6,0.9,0.7,1.2c0.3,0.7,0.5,1.1,0.5,1.1c-5.2-2.8-10.5-4.3-15.8-3.1c-1.7,0.4-3.2,0.9-4.3,1.4
		c-0.5,0.2-0.9,0.4-1.2,0.6c-0.3,0.2-0.3,0.3-0.4,0.4c-0.6,0.4-0.9,0.7-0.9,0.7l0-0.1c-0.9,1.8-1.8,3.6-2.7,5.2
		c-2.2,4.1-4.4,7.4-6.1,9.6c0,0-0.1,0.1-0.1,0.1c-1.5,2-1.6,6.5-1.1,9C329,369.2,329.5,369.8,334.7,370.1 M359.3,145.6
		c1.4-9.2,0.3-20.2-5.8-27.5c-4.7-5.7-7.3-12.6-9.7-19.3c-2.6-7.2-5.2-13.9-9.8-16.7c0.3,2.3,0.1,4.8-0.2,7.3
		c-0.6,4-1.2,8.6,1.4,14.8c6,14.2,7.9,19,5.8,27l0,0c-0.9,4.3,0.7,6.8,2.4,8.6C346.4,142.8,352.4,145.1,359.3,145.6 M330.4,75.7
		c0.2-8.4-9-20-21.3-26.8c-1.7-0.9-3.4-2.1-5.2-3.3c-1.4,10.6-8.8,24.1,18.4,27.3C326.1,73.4,328.6,74.4,330.4,75.7 M199.2,315.4
		c0-7.1,0.7-14.1,2.1-21.1c0.9-4.3,2-8.2,3.1-11.5c-9.7-18.3-0.6-57.5,9.6-74.4c-3.9-3.8-6.2-10.5-6.3-18.4c0-0.7,0-1.7-0.1-2.8
		c-0.3-13.5,0-20.5,2.8-23.9c0.9-1.2,2.1-2,3.4-3c0.9-0.7,3-2.2,3.1-2.9c0-0.3-0.3-1.5-2.2-3.6c-9.1-10.2-3.7-21-1.4-25.1
		c-3.9-10.6-6.5-37.8-3.4-48.4c3.9-13.3,1.2-35.8-1.3-44.6c-2.1-7-1.2-14.1,2.5-19.5c2.6-3.9,7.9-8.8,18.2-9.8
		c9.1-0.9,18.3,0.7,26.4,2.1c5.3,0.9,10.2,1.8,13.5,1.6c8.4-0.6,18,7.5,29,16.8c5.7,4.9,11.7,9.9,16.3,12.5
		c12.7,7,25.8,20.4,26.8,34.3c6.6,4.9,9.7,13.2,12.6,21.1c2.2,5.8,4.4,11.9,7.9,16.2c9.6,11.6,10.5,28.5,7.1,41.4
		c27.1,26.3,20.8,89.7,13.2,108c-0.9,1.9-0.5,2.8,2.8,7.3c3.8,5.2,9.1,12.4,8.5,25.2c0,0.8-4.2,78.5-47.9,88.2
		c1.1,7.2-0.2,19.3-13.3,35.2c-13.9,16.9-22.9,23.4-28.5,25.7c-5,12.1-20.8,31.7-52.6,35.2c-3.7,4.4-8.7,6-13.8,5.9
		c-3.7-0.1-7.5-1.1-10.8-2.6c-7.7-3.5-15.7-13.3-16-26.9c-3.8-4.2-10.4-15-3.7-33.8c-1.8-1.6-3.6-4-4.2-7.2
		c-0.7-3.7,0.4-7.4,3.1-11.1c-5.2-9.6-3.7-20.4-2.2-30.8c1.3-9.2,2.5-17.9-0.5-25.8c-0.7-1.8-1.3-3.6-1.8-5.4
		c-1.5-5.4-2.1-11-2.1-16.7L199.2,315.4z M299.2,433.1c-0.2,0-0.5,0.1-0.7,0.1C298.7,433.2,299,433.2,299.2,433.1 M298.5,433.2
		C298.5,433.2,298.5,433.2,298.5,433.2C298.5,433.2,298.5,433.2,298.5,433.2L298.5,433.2z M320.6,166.5c-0.9-7.7-3.6-20.1,3.4-22.6
		c-13.8,0.3-14.5,17.1-11.6,22.4c2.1,3.9,0.9,20.6,0.9,20.6S321.6,174.8,320.6,166.5 M310.5,311.2c-0.1,0.1-0.3,0.3-0.1,0.4l0.1-0.1
		L310.5,311.2 M231.2,306.7c-1.3,2-2.2,3.5-2.8,4.6c-0.6,1.1-0.9,1.7-0.9,1.7s2.1-1.7,5.6-4.6c1.8-1.4,3.9-3.2,6.4-5.1
		c2.5-1.8,5.4-3.7,8.5-5c1.6-0.6,3.2-1.1,4.8-1.2c0.8-0.1,1.5,0,2.3,0.1c0.3,0,0.8,0.2,1,0.2c0.5,0.1,1.1,0.3,1.5,0.4
		c3.7,1.1,7.6,2.9,10.9,5.4c3.3,2.5,5.9,5.7,7.3,9.4c1.4,3.7,1.6,7.9,0.7,12.3c-0.2,1.1-0.5,2.2-0.8,3.3l-1.1,3.7
		c-0.7,2.4-1.4,4.9-2.2,7.1c-0.8,2.3-1.6,4.4-2.6,6.2c-1,1.8-2,3.2-3.3,4.3c-2.7,2.2-7.1,3.8-11.2,5.3c-1.1,0.4-2.1,0.8-3.2,1.1
		c-1.1,0.4-2.1,0.9-3.2,1.3c-2,0.9-3.9,1.8-5.7,2.8c-3.6,1.9-6.7,3.8-9.4,5.7c-2.7,1.8-5,3.6-6.7,5.3c-1.7,1.6-2.9,3.3-3.2,4.7
		c-0.1,0.7,0.2,1.2,0.4,1.5c0.2,0.2,0.4,0.3,0.4,0.3c0.1,0-0.6-0.6-0.1-1.6c0.5-1,2-2,3.9-3c2-1.1,4.5-2.1,7.4-3.3
		c2.9-1.1,6.3-2.3,9.9-3.5c1.8-0.6,3.7-1.2,5.7-1.7c1-0.3,2-0.5,2.9-0.8c1.1-0.2,2.1-0.5,3.2-0.7c2.2-0.6,4.5-1.1,7-1.9
		c2.4-0.8,5.1-1.9,7.7-3.7c0.4-0.3,0.8-0.6,1.2-1c3.4,3,7.9,5.6,11.9,8.7c2,1.5,3.9,3.2,5.4,4.9c0.7,0.9,1.3,1.8,1.8,2.7
		c0.5,0.9,0.8,1.9,0.9,2.8c0.2,0.9,0.2,1.8,0.1,2.5c0,0.8-0.2,1.4-0.3,2c-0.1,0.6-0.3,1-0.4,1.3c-0.1,0.3-0.2,0.5-0.2,0.5
		s0.1-0.1,0.3-0.4c0.2-0.3,0.5-0.6,0.7-1.1c0.3-0.5,0.6-1.2,0.9-2c0.3-0.8,0.5-1.7,0.6-2.8c0.1-1.1,0-2.3-0.3-3.5
		c-0.2-1.2-0.7-2.5-1.2-3.7c-1.1-2.4-2.7-4.8-4.5-7c-2.3-2.9-4.8-5.7-6.7-8c-1.2-8.3,0.2-36.6,13.7-34.5c2.4,1.2,5.1,2.1,7.8,2.8
		c1.5,0.4,3.1,0.7,4.7,0.9l0.6,0.1l0.3,0l0.2,0l0.1,0l0,0l0.3,0l1.1,0.1c0.4,0,0.7,0.1,1.2,0l1.5-0.1l1.5-0.1l1.3-0.2
		c0.8-0.1,1.7-0.2,2.5-0.4c1.6-0.4,3.3-0.8,4.9-1.3c3.2-1,6.3-2.4,9.2-4c1.4-0.9,2.8-1.7,4.2-2.7c1.3-1,2.6-1.9,3.8-3.1
		c1.1-1.2,2.3-2.1,3.3-3.4c0.9-1.2,2-2.3,2.7-3.6c0.8-1.3,1.5-2.5,2.1-3.7c0.5-1.3,1-2.5,1.5-3.7c0.2-0.6,0.4-1.2,0.5-1.8
		c0.1-0.6,0.3-1.2,0.4-1.7c0.2-1.1,0.5-2.1,0.5-3.2c0-1,0.1-1.9,0.1-2.8c0-0.4,0-0.8,0-1.2c0-0.4-0.1-0.8-0.1-1.1
		c-0.2-1.4-0.4-2.5-0.5-3.2c-0.2-0.7-0.2-1.1-0.2-1.1s-0.1,0.4-0.4,1.1c-0.2,0.7-0.6,1.7-1,3c-0.1,0.3-0.2,0.6-0.3,1
		c-0.2,0.3-0.3,0.7-0.5,1c-0.4,0.7-0.7,1.5-1,2.3c-0.3,0.8-0.9,1.6-1.4,2.4c-0.6,0.8-0.9,1.7-1.6,2.6c-0.6,0.8-1.3,1.7-2,2.6
		c-0.8,0.8-1.6,1.6-2.4,2.5c-0.8,0.8-1.8,1.6-2.7,2.4c-0.9,0.8-2,1.5-3,2.2c-1,0.7-2.2,1.3-3.3,2.1c-1.1,0.6-2.4,1.2-3.5,1.9
		c-2.5,1.1-5,2.2-7.6,3c-1.3,0.5-2.6,0.8-3.9,1.1c-0.7,0.2-1.3,0.3-1.9,0.4l-1,0.2l-0.8,0.1l-0.8,0.1c-0.2,0.1-0.7-0.1-1,0l-1.1-0.3
		c0,0,0,0,0,0l-0.2,0.3l-0.5,0c-1.3,0-2.6,0-3.9-0.1c-5.2-0.5-9.9-1.6-12.9-3.5c-1.5-1-2.5-2.1-3.2-3.4c0,0,0-0.1,0-0.1
		c0-2,0.4-4.1,0.8-5.9c1.7-0.7,3.5-1.6,5.4-2.6c2.9-1.6,5.9-3.5,9-5.6c0.8-0.5,1.5-1.1,2.3-1.6c0.8-0.6,1.2-0.8,2.2-1.5
		c1.6-1.1,3.2-2.1,4.9-3.2c1.6-1,3.2-2.1,4.9-3c0.8-0.5,1.7-1,2.5-1.4c0.9-0.5,1.7-1,2.6-1.4c0.9-0.5,1.8-1,2.7-1.4
		c1.4-0.7,2.7-1.7,3.8-2.8c2.2-2.2,3.6-4.8,4.6-7.3c0.5-1.5,0.9-3,1.3-4.4c7.3-1.7,16.3,4.3,17.7,5.4c-0.9-8-10.7-15.4-16.3-17
		c0.2-3.5,0.3-6.9,0.6-9.8c0.1-0.8,0.2-1.8,0.3-2.4c0.3-1.1,0.3-1.3,0.4-1.7c0.3-0.7,0.9-1.4,2.1-2c2.3-1.3,5.6-1.9,8.6-2.2
		c3-0.4,5.9-0.6,8.5-0.8c2.6-0.1,4.9-0.3,6.8-0.5c3.8-0.3,5.9-0.8,5.9-0.8s-2.1-0.5-5.8-1.4c-1.8-0.4-4.1-1-6.6-1.5
		c-2.6-0.5-5.5-1.1-8.9-1.4c-3.4-0.2-7.1-0.5-11.6,1c-1.1,0.4-2.3,0.9-3.5,1.7c-1.1,0.8-2.2,1.9-3.1,3.1c-0.9,1.2-1.5,2.9-1.7,3.7
		c-0.4,1.3-0.7,2.3-0.9,3.4c-0.9,4.4-1.2,8.5-1.7,12.6c-0.5,4-1,8-2.2,11c-0.6,1.5-1.3,2.7-2,3.5c-0.4,0.4-0.8,0.7-1.3,1
		c-0.9,0.5-1.9,1.1-2.8,1.6c-1.8,1.1-3.8,2.3-5.5,3.5c-1.8,1.2-3.5,2.5-5.1,3.8c-0.5,0.4-1,0.9-1.6,1.3c-2-6.3-3.8-16.8-7.9-19.7
		c3.6,9.2,1.3,22.8-4.6,30.9c-0.8,0.7-1.5,1.4-2.2,2c-2.3,2-4.5,3.8-6.5,5.2c-2.1,0.9-4.4,1.9-6.3,2.9c-1.6-1.6-3.4-3-5.2-4.2
		c-4.7-3.1-9.7-5-14.8-6c-0.7-0.1-1.2-0.2-1.8-0.3c-0.9-0.1-1.5-0.2-2.3-0.1c-1.5,0-2.9,0.2-4.1,0.5c-2.6,0.7-4.8,1.8-6.7,3
		c-3.7,2.5-6.4,5.3-8.5,7.8C234.1,302.4,232.5,304.7,231.2,306.7 M310.6,311L310.6,311c0.1,0,0,0.1-0.1,0.2L310.6,311"/>
</g>
</svg>
