<?xml version="1.0" encoding="utf-8"?>
<!-- Generator: Adobe Illustrator 25.2.3, SVG Export Plug-In . SVG Version: 6.00 Build 0)  -->
<svg version="1.1" id="Layer_1" xmlns="http://www.w3.org/2000/svg" xmlns:xlink="http://www.w3.org/1999/xlink" x="0px" y="0px"
	 viewBox="0 0 869 869" style="enable-background:new 0 0 869 869;" xml:space="preserve">
<style type="text/css">
	.st0{clip-path:url(#SVGID_2_);}
	.st1{fill:#365673;}
	.st2{fill:#FCC069;}
	.st3{fill:#F29544;}
	.st4{fill:#2B455C;}
</style>
<g id="Layer_2_1_">
	<g id="Layer_1-2">
		<g>
			<g>
				<defs>
					<rect id="SVGID_1_" x="-5.5" y="-5.5" width="880" height="880"/>
				</defs>
				<clipPath id="SVGID_2_">
					<use xlink:href="#SVGID_1_"  style="overflow:visible;"/>
				</clipPath>
				<g class="st0">
					<path class="st1" d="M840.2,434.5c0,224-181.7,405.7-405.7,405.7S28.8,658.6,28.8,434.5S210.5,28.8,434.5,28.8
						S840.2,210.5,840.2,434.5"/>
					<path class="st2" d="M313.6,809.1c-11.5-2.7-22.5-7.2-33.3-11.7c-89.1-38-156.2-99.9-200.8-186c-0.5-1-0.9-2.1-1.3-3.2
						c2-5.8,6.4-9.9,10.3-14.2c10.5-11.4,22.6-21.4,35.9-29.3c20.5-12.3,43.5-19.6,67.3-21.5c13.4-1.1,26.7-0.4,39.9,2
						c19.9,3.7,39,11.3,56.1,22.2c14.8,9.4,27.8,21.3,38.7,35.1c8.3,10.7,15.2,22.5,20.5,35c5.7,13.4,9.5,27.4,11.2,41.9
						c0.9,7.5,2.6,15.3,1.3,22.9c-1.1,6.6-0.7,13.3-1.9,19.8c-3.6,20.8-10.3,40.3-21.6,58.1C329.4,790.6,321.9,800.2,313.6,809.1"/>
					<path class="st3" d="M313.6,809.1c8.3-8.9,15.8-18.5,22.4-28.8c11.2-17.9,17.9-37.4,21.6-58.1c1.1-6.6,0.8-13.3,1.9-19.8
						c1.3-7.6-0.4-15.3-1.3-22.9c-1.8-14.4-5.6-28.6-11.2-41.9c-5.3-12.6-12.2-24.3-20.6-34.9c-10.8-13.8-23.9-25.7-38.7-35.1
						c-17.1-10.9-36.2-18.4-56.1-22.2c-13.2-2.4-26.5-3.1-39.9-2c-23.8,1.8-46.8,9.1-67.2,21.4c-13.4,7.9-25.5,17.8-35.9,29.3
						c-3.9,4.3-8.3,8.4-10.3,14.2c-7-12.7-12.3-26.1-17.4-39.7c-0.2-0.9-0.4-1.9-0.4-2.9c8-7.3,15.5-15.1,24.2-21.7
						c32.1-24.4,68.2-37.9,108.6-40.2C289.1,498,376,564,395,659.6c11.3,57.1-0.9,109.5-35.5,156.5c-0.8,1.1-1.9,2-2.1,3.4
						c-1.7,0.4-3.5,0.4-5.2-0.1c-12.5-2.6-24.8-5.8-37-9.5C314.5,809.8,314.1,809.5,313.6,809.1"/>
					<path class="st3" d="M224.7,95.5c-0.1,2.3-0.2,12.9-0.2,15.2c0,101.5,0,202.9,0,304.5c0.1,2.7,0,5.5-0.5,8.2
						c-1.9,10.2-10.1,16.7-20.8,16.2c-9.8-0.5-17.8-8.4-18.4-18.2c-0.1-1.9-0.1-3.9-0.1-5.9c0-92.3,0-184.4,0-276.7
						c0-2.3-0.1-12.9-0.2-15.2c1.8-2.7,4.6-4.3,7.1-6.2c9-7,18.3-13.5,27.9-19.5c1.6-1.1,5.2-7.8,5.2,5.7"/>
					<path class="st3" d="M704.1,723.3c-2.3-0.1-4.8-0.3-7.1-0.3c-65,0-130.1,0-195.1,0c-2.1,0-4.4,0.1-6.5-0.1
						c-10.5-0.7-18.6-9.5-18.4-20.2c0.2-10.3,8.5-18.7,18.8-19.1c1.4,0,2.7,0,4.2,0h234.2c2.1,0,4.4,0.1,6.5,0.2
						c-8.8,12.3-19.3,23-29.9,33.7C708.6,719.7,706.9,722.2,704.1,723.3"/>
					<path class="st2" d="M56.9,316.2c15.2,36.8,30.3,73.5,45.5,110.3c1.6,3.8,3.2,7.6,4.8,11.4c3.9,10.7-0.7,22-10.8,25.9
						c-10.1,3.9-21.3-0.6-25.8-11.2c-8.9-21.3-17.6-42.5-26.5-63.8c-0.9-2.1-1.9-4.3-2.9-6.5c0.8-12.7,3.9-24.8,6.8-37.1
						c1.9-8.2,4.5-16.3,6.8-24.4C55.1,319.2,55.3,317.3,56.9,316.2"/>
					<path class="st2" d="M485.2,828.6c-6.3-2.7-12.8-5.2-18.9-8.1c-6.9-2.9-11.3-9.8-11.2-17.3c-0.2-7.6,3.1-13.8,9.8-17.6
						c6.1-3.4,12.4-3.2,18.7-0.6c15.4,6.4,30.8,12.8,46.2,19.1c7.4,3,14.9,6,22.4,9c-0.7,1-1.7,1.6-2.9,1.8
						c-19.8,6.2-40.1,10.6-60.6,13.5C487.6,828.5,486.3,828.5,485.2,828.6"/>
					<path class="st3" d="M683.9,246.6c0.1,4.8-1.5,9.4-4.7,13.1c-0.9,1-1.9,2-2.8,3c-81.9,81.9-163.9,163.9-245.9,245.9
						c-4.4,4.4-9.1,7.4-15.5,7.4c-8.1,0-14.1-3.5-17.7-10.6c-3.7-7.3-2.9-14.5,1.9-21.2c1.2-1.5,2.6-2.9,4.1-4.3
						c81.5-81.5,163-163.1,244.7-244.7c3-3.1,6.3-6,10.6-7.2c10.3-3.2,21.4,2.5,24.6,13C683.6,242.7,683.9,244.6,683.9,246.6"/>
					<path class="st2" d="M474.9,607.9c-9.1,0-17-6.1-19.3-14.9c-2.1-9.1,1.8-18.3,10.2-22.4c6.7-3.2,13.8-5.9,20.7-8.7L693.7,476
						c4.8-2,9.5-3.4,14.9-2c8.3,2,14.4,9.1,15.2,17.5c0.7,8.1-3.7,15.8-11,19.2c-6.6,3-13.4,5.7-20.2,8.5l-206.7,85.6
						C482.3,606.3,478.7,608.1,474.9,607.9"/>
					<path class="st2" d="M433.2,204.1c0.2,3.2-1.1,6.6-2.5,9.8c-19.9,48.2-39.9,96.4-59.8,144.5c-10.8,26-21.6,51.9-32.3,78
						c-0.7,1.6-1.3,3.2-2.1,4.9c-4.9,10-15.9,14.2-25.8,9.9c-9.7-4.3-14.3-15.3-10.4-25.2c3.1-8.5,6.8-16.8,10.3-25.1
						c27.8-67,55.6-134.2,83.4-201.2c0.8-2,1.7-4.1,2.7-5.9c5.5-9.4,17.6-12.5,26.9-7C429.6,190.4,433.3,197,433.2,204.1"/>
				</g>
			</g>
		</g>
	</g>
</g>
<path class="st4" d="M434.5,0C194.5,0,0,194.5,0,434.5S194.5,869,434.5,869S869,674.5,869,434.5S674.5,0,434.5,0z M434.5,819.5
	c-212.6,0-385-172.4-385-385s172.4-385,385-385s385,172.4,385,385S647.1,819.5,434.5,819.5z"/>
</svg>
