<?xml version="1.0" encoding="UTF-8"?>
<svg id="Layer_1" data-name="Layer 1" xmlns="http://www.w3.org/2000/svg" viewBox="0 0 1920 1080">
  <defs>
    <style>
      .cls-1 {
        fill: #ffd98d;
      }

      .cls-2 {
        fill: #f29544;
      }

      .cls-3 {
        fill: #365673;
      }

      .cls-4 {
        fill: #fcc069;
      }
    </style>
  </defs>
  <rect class="cls-3" x=".27" width="1919.73" height="1079.86"/>
  <g>
    <g>
      <path class="cls-2" d="M.27,21.1c2.98,10.19,5.71,20.46,8.97,30.57,13.17,40.84,32.04,79,55.88,114.6,17.56,26.23,41.14,46.22,68.9,61.05,49.1,26.23,101.56,43.38,155.4,56.67,36.68,9.05,73.78,16.43,110.07,27.05,41.01,12,79.41,29.06,112.13,57.27,16.54,14.26,31.23,30.53,47.89,44.62,52.11,44.08,110.04,76.55,178.36,87.72,23.73,3.88,47.7,4.87,71.68,5.36,27.81,.57,55.63,.62,83.45,1.14,87.05,1.62,165.83,28.06,236.33,79.14,.66,.48,1.23,1.1,1.85,1.65-.76,3.33-2.94,5.94-4.51,8.86-16.34,30.39-27.01,62.56-30.7,96.95-.04,.33-.08,.66-.13,.99-1.28,8.12-1.2,7.84-9.36,5.55-28.67-8.04-55.58-20.38-82.51-32.82-33.82-15.63-68.73-28.09-105.85-33.2-22.92-3.15-45.93-4.46-69.05-1.47-31.89,4.12-61.65-2.96-89.92-17.71-18.16-9.47-35.09-21.15-53.62-29.94-25.36-12.03-51.89-19.31-80.02-21.42-20.75-1.55-41.11,1.13-61.61,2.93-17.85,1.56-35.7,4.09-53.65,.59-13.13-2.56-24.31-8.8-34.47-17.2-15.48-12.8-26.77-29.53-40.85-43.67-10.58-10.62-21.03-21.32-32.33-31.19-18.9-16.51-39.54-30.39-61.7-42.13-14.62-7.75-30.08-13.45-45.64-18.85-23.43-8.14-47.03-15.86-69.71-25.99-31.46-14.04-60.92-31.31-87.38-53.62-25.01-21.09-46.8-44.95-64.21-72.64C30.26,224.3,10.47,184.83,1.14,140.84c-.13-.62-.57-1.18-.86-1.76,0-39.32,0-78.65,0-117.97Z"/>
      <path class="cls-2" d="M166.24,1079.86c17.69-10.76,36.39-19.43,55.61-27.06,23.69-9.4,48.06-16.91,71.89-25.92,28.92-10.94,55.02-26.74,79.03-46.08,26.17-21.07,48.6-45.81,70.49-71.16,21.05-24.38,47.85-33.75,80.01-30.25,17.97,1.95,36.02,3.58,54.1,4.83,21.86,1.51,43.16-.75,64.29-5.72,24.71-5.82,47.42-16.4,69.06-29.54,16.93-10.28,33.86-20.9,52.87-26.85,22.37-7,45.19-10.15,68.88-6.64,16.92,2.51,34.11,1.4,51.23-.25,22.14-2.13,43.71-6.65,64.9-13.2,19.44-6.01,38.28-13.62,56.68-22.23,27.17-12.73,54.56-24.82,83.53-32.96,3.85-1.08,5.91-1.42,6.47,3.87,3.72,34.96,13.54,68.13,30.23,99.18,1.89,3.51,3.72,7.05,5.58,10.58-.69,.46-1.41,.89-2.08,1.38-72.61,52.59-153.83,78.38-243.41,79.15-38.63,.33-77.29,0-115.88,2.69-32.63,2.28-64.39,8.49-94.76,20.71-51.64,20.78-97.23,50.84-136.64,90.24-8.57,8.57-17.43,16.84-26.16,25.26H166.24Z"/>
      <path class="cls-2" d="M1182.57,526.71c-7.55-6.16-16.36-10.19-24.97-14.49-22.55-11.26-46.24-19.88-70.01-27.99-58.44-19.94-110.77-50.26-158.39-89.38-38.58-31.69-80.61-57.77-127.59-75.52-35.32-13.34-71.81-22.45-108.42-31.15-48.32-11.48-96.34-23.84-142.31-43.08-45.86-19.19-89.45-42.25-127.87-74.24-41.35-34.44-74.64-75.44-99.85-122.99-7.72-14.57-15.5-29.11-23.23-43.68-.69-1.3-1.16-2.73-1.73-4.09,46.66,0,93.32,0,139.97,0,1.07,2.43,1.97,4.95,3.25,7.27,13.38,24.24,28.61,47.25,45.85,68.93,19.53,24.58,41.18,46.99,66.24,66.05,34.61,26.32,73.68,43.25,115.24,54.73,38.18,10.55,76.58,20.09,113.69,34.37,35.58,13.69,67.94,31.95,95.39,58.66,10.72,10.43,22.07,20.22,33.25,30.17,16.39,14.59,33.06,28.88,49.28,43.65,17.54,15.97,36.49,30.02,56.61,42.49,25.83,16.01,54.15,27.14,81.1,40.97,2.58,1.32,5.39,2.21,8.06,3.29,.73-1.66-.26-2.27-.83-3-10.24-12.99-21.87-24.65-34.59-35.17-18.98-15.7-39.05-30.01-58.91-44.55-27.37-20.03-53.55-41.45-74.31-68.4-29.19-37.9-56.03-77.4-75.75-121.31-13.73-30.57-32.92-57.19-57.66-79.99-21.59-19.89-45.55-36.22-71.18-50.23-32.65-17.85-67.67-29.56-103.49-39.06-11.71-3.1-23.49-5.93-35.24-8.88,49.66,0,99.31,0,148.97,0,.61,1.38,2.02,1.64,3.18,2.2,29.82,14.52,56.9,32.93,82.1,54.6,31.4,27.01,57.36,57.82,74.75,95.64,10.43,22.69,21.91,44.91,31.91,67.78,21.71,49.63,54.33,90.02,98.72,121.21,21.4,15.04,43.38,29.2,64.75,44.26,24.27,17.1,48.23,34.59,67.3,57.72,16.03,19.45,29.65,40.6,43.22,61.78-8.78,7.2-18.28,13.5-26.48,21.41Z"/>
      <path class="cls-2" d="M1281.48,470.12c-18.84-22.59-31.87-48.29-40.39-76.3-9.84-32.32-19.17-64.8-29.11-97.09-5.53-17.99-12.49-35.48-20.81-52.4-15.3-31.14-36.89-56.85-65.76-76.3-29.55-19.91-59.67-39.01-88.03-60.63-37.46-28.56-64.92-65.12-85.29-107.29h183.96c.67,10.6,5.73,19.31,11.98,27.46,8.03,10.47,17.71,19.5,27.08,28.62,21.86,21.29,34.62,47.33,42.93,76.04,5.64,19.47,9.34,39.57,19.32,57.6,4.38,7.91,9.56,15.19,15.71,21.81,9.39,10.11,19.41,19.7,27.19,31.18,10.9,16.1,18.69,33.23,17.86,53.41-1.08,26.19,.63,52.17,7.06,77.74,6,23.84,16.07,45.79,29.65,66.19,3.34,5.02,4.37,10.74,5.82,16.36,.52,2-.1,3.3-2.33,3.41-19.39,.91-38.05,5.93-56.84,10.19Z"/>
      <path class="cls-2" d="M1765.94,.11c-22.68,47.17-54.55,86.57-97.75,116.61-20.52,14.27-40.7,29.09-62.06,42.04-44.22,26.8-73.56,65.07-91.4,113.17-12.48,33.64-21.44,68.3-31.71,102.59-7.71,25.73-16.01,51.21-30.8,74-4.81,7.42-9.97,14.57-15.4,21.54-13.46-3.03-26.75-6.88-40.51-8.46-4.95-.57-9.89-1.29-14.86-1.52-3.48-.17-4.62-.97-3.84-4.8,1.5-7.33,4.51-13.86,8.58-20.05,17.94-27.22,27.54-57.37,31.96-89.48,2.26-16.43,2.2-32.89,1.69-49.33-.55-17.78,5.54-33.23,14.29-48.07,7.35-12.46,17.34-22.81,27.36-32.96,15.95-16.15,25.75-35.42,31.43-57.04,6.14-23.37,12.14-46.75,23.94-68.15,5.34-9.69,11.78-18.51,19.2-26.68,11.08-12.19,23.41-23.23,33.88-35.97,6.52-7.93,11.37-16.82,12.03-27.43h183.96Z"/>
      <path class="cls-2" d="M1509,504.93c11.37-17.23,22.68-34.49,34.95-51.11,18.65-25.29,42.74-44.61,67.99-62.73,23.81-17.08,48.55-32.8,72.51-49.69,44.33-31.25,76.91-71.64,98.59-121.26,9.93-22.72,21.34-44.77,31.69-67.31,17.43-37.97,43.02-69.44,75.14-95.86,9.88-8.13,19.15-17.01,30.04-23.87v59.99c-9.89,7.71-18.37,16.87-26.48,26.34-15.79,18.45-28.54,38.88-38.28,61.13-16.01,36.54-38.58,69.12-61.32,101.59-14.09,20.11-30.37,38.41-48.57,54.83-17.42,15.72-36.78,29.09-55.52,43.18-22.99,17.29-46.85,33.55-66.33,55.05-4.26,4.7-8.91,9.16-12.12,14.89,1.9,.86,2.95-.25,4.07-.78,10.09-4.75,20.18-9.51,30.22-14.36,21.72-10.5,43.7-20.46,63.93-33.84,20.89-13.82,40.02-29.7,58.54-46.5,26.47-24.01,53.56-47.35,80-71.4,21.31-19.39,45.08-34.6,71.86-45.16v79.98c-17.08,6.63-33.88,13.89-50.15,22.34-32.55,16.92-61.75,38.77-90.19,61.62-39.39,31.65-82.22,57.07-129.62,74.87-38.6,14.5-78.13,26.9-113.77,48.39-4.16-1.79-7.06-5.27-10.6-7.9-5.54-4.12-11.05-8.28-16.57-12.43Z"/>
      <path class="cls-2" d="M1919.91,632.96c-10.22,2.92-20.44,.72-30.64-.1-13.57-1.09-27.05-2.12-40.77-1.2-16.14,1.08-32.07,2.95-47.9,6.11-27.42,5.46-53.45,15.11-78.93,26.34-26.64,11.75-52.65,25-80.7,33.34-3.99,1.19-8,2.3-11.93,3.66-3.17,1.1-4.79,.88-5.25-3.12-2.4-20.53-6.48-40.71-13.36-60.26-5.43-15.44-12.01-30.33-20.21-44.49-1.08-1.86-2.29-3.7-2.42-5.96,7.37-6.01,15.44-11.02,23.44-16.09,48.13-30.52,100.01-51.11,156.64-59.12,50.48-7.13,101.32-5.12,152.04-6.07v126.97Z"/>
      <path class="cls-2" d="M1587.87,860.8c.79-3.32,2.98-5.93,4.55-8.84,16.37-30.37,26.93-62.58,30.65-96.95,1.04-9.57,1.1-9.47,10.54-6.74,24.06,6.96,47.04,16.61,69.69,27.24,33.21,15.6,67.12,29.34,103.49,35.86,13.25,2.38,26.61,3.7,40.04,4.79,17.4,1.42,34.48-.53,51.68-2.09,7.1-.64,14.31-.71,21.39,.85v126.97c-29.15-.35-58.3-.64-87.45-1.08-29.2-.44-58.2-3.09-86.86-8.89-57.97-11.73-110.01-36.63-157.72-71.13Z"/>
      <path class="cls-2" d="M894.1,1079.86c15.07-11.51,30.39-22.7,45.16-34.59,39.1-31.47,81.69-56.76,128.85-74.21,22.17-8.2,44.21-16.73,66.32-25.09,16.56-6.26,32.02-14.74,47.43-23.34,6.96,4.17,12.6,10.07,19.14,14.8,2.51,1.82,5.55,3.04,7.32,5.81-13.47,22-27.72,43.47-44.34,63.24-18.6,22.12-41.81,38.9-65.2,55.42-8.54,6.03-17.14,11.97-25.71,17.95h-59.99c6.97-6.95,15.3-12.18,23.14-18.01,20.55-15.28,41.27-30.33,58.61-49.39,4.2-4.62,8.86-8.99,12.34-15.67-2.2,.84-3.28,1.18-4.29,1.66-9.91,4.72-19.73,9.64-29.72,14.18-28.95,13.18-57.33,27.37-82.76,46.74-8.43,6.42-17.49,12.13-24.3,20.48h-71.99Z"/>
      <path class="cls-2" d="M1536.75,922.82c31.89,19.59,67.19,31.38,102.05,43.97,49.3,17.81,94.71,42.31,135.63,75.14,15.58,12.5,31.39,24.72,47.74,36.22,.66,.46,1.17,1.13,1.75,1.71h-71.99c-1.68-1.83-3.18-3.87-5.07-5.44-20.9-17.37-43.13-32.83-67.38-45.14-19.28-9.78-38.87-18.94-58.4-28.22-3-1.43-5.99-3.25-10.2-3.7,3.81,6.13,8.32,10.75,12.64,15.48,17.27,18.89,37.87,33.83,58.27,49.02,7.84,5.83,16.17,11.06,23.14,18.01h-59.99c-8.57-5.98-16.91-12.31-25.74-17.88-47-29.66-81.55-70.77-109.32-118.19,8.95-6.99,17.9-13.98,26.85-20.98Z"/>
      <path class="cls-2" d="M1233.04,1079.86c6.92-22.61,13.37-45.4,24.63-66.4,6.62-12.35,14.01-24.19,23.32-34.75,11.37,2.47,22.7,5.17,34.13,7.34,7.16,1.36,14.45,2.15,21.72,2.74,3.5,.28,4.01,1.28,3.39,4.61-1.43,7.75-5.2,14.3-9.35,20.78-12.97,20.24-22,42.11-26.85,65.69h-70.99Z"/>
      <path class="cls-2" d="M1437.37,978.77c18.35,22.24,30.9,47.54,39.5,74.91,2.74,8.71,5.41,17.45,8.11,26.18h-70.99c-4.84-23.54-13.85-45.4-26.81-65.61-4.34-6.76-8.27-13.62-9.55-21.73-.37-2.33-.08-3.49,2.47-3.6,19.04-.85,37.44-5.25,55.78-10,.48-.12,.99-.1,1.49-.15Z"/>
    </g>
    <g>
      <path class="cls-4" d="M1414,1079.86h-109.98c4.85-23.57,13.88-45.44,26.85-65.69,4.15-6.48,7.92-13.03,9.35-20.78,.61-3.32,.1-4.32-3.39-4.61-7.27-.58-14.56-1.38-21.72-2.74-11.43-2.17-22.76-4.86-34.13-7.34-1.07-1.16-2.56-1.44-3.98-1.91-23.01-7.56-44.6-18.05-64.76-31.48-1.23-.82-2.61-1.39-3.92-2.08-1.77-2.77-4.81-3.99-7.32-5.81-6.54-4.74-12.17-10.63-19.13-14.8-.34-1.82-1.91-2.65-3.09-3.76-9.1-8.52-17.54-17.65-25.47-27.27-8.15-9.87-14.99-20.65-22.2-31.17-1.86-3.53-3.69-7.07-5.58-10.58-16.69-31.04-26.51-64.21-30.23-99.18-.56-5.29-2.62-4.95-6.47-3.87-28.97,8.14-56.36,20.23-83.53,32.96-18.4,8.62-37.24,16.22-56.68,22.23-21.19,6.55-42.77,11.07-64.9,13.2-17.12,1.65-34.3,2.76-51.23,.25-23.69-3.51-46.52-.36-68.88,6.64-19.01,5.95-35.94,16.56-52.87,26.85-21.64,13.15-44.35,23.72-69.06,29.54-21.13,4.98-42.43,7.23-64.29,5.72-18.08-1.25-36.13-2.88-54.1-4.83-32.16-3.5-58.97,5.87-80.01,30.25-21.89,25.35-44.32,50.09-70.49,71.16-24.01,19.34-50.11,35.14-79.03,46.08-23.83,9.02-48.2,16.52-71.89,25.92-19.22,7.63-37.92,16.29-55.61,27.06-53.5,0-107.01-.08-160.51,.14-4.75,.02-6.38-1.01-5.5-5.66,.27-1.44,.04-2.98,.04-4.48,1.43-.38,2.96-.56,4.28-1.18,12.2-5.72,24.54-11.12,36.44-17.52,22.76-12.24,43.18-27.58,61.7-45.41,13.56-13.05,25.16-27.9,36.52-42.87,17.08-22.52,33.19-45.86,52.44-66.61,21.2-22.84,43.66-44.4,70.57-60.68,19.04-11.52,38.9-21.14,60.61-26.59,18.43-4.62,37.15-7.08,56.12-8.28,20.48-1.3,40.93-1.37,61.31,.44,25.2,2.23,49.93,7.57,74.58,13.15,30.64,6.93,61.43,10.38,92.96,6.83,29.6-3.33,57.73-11.36,84.77-23.48,14.73-6.61,29.15-13.91,43.85-20.6,19.15-8.71,39.32-14.6,59.47-20.45,20.96-6.08,42.25-10.37,64.11-11.87,6.81-.47,13.62-.48,20.41-.96,14.07-.99,28.13-1.91,42.15-3.69,13.49-1.71,27.16-2.02,40.71-3.32,19.35-1.86,38.55-4.85,57.74-7.92,8.09-1.29,16.14-2.82,24.27-4.24-.45-1.76-1.42-1.57-2.17-1.7-13.11-2.19-26.2-4.49-39.34-6.52-19.37-2.99-38.81-5.41-58.4-6.51-8.78-.49-17.66-.8-26.28-2.34-14.65-2.62-29.44-2.73-44.18-3.43-10.14-.48-20.25-1.24-30.29-2.43-24.55-2.91-48.11-10.18-71.71-17.23-28.09-8.4-53.87-22.09-80.33-34.23-34.78-15.96-71.37-24.47-109.62-25.11-21.17-.35-42.09,2.7-62.74,7.36-30.49,6.88-61.05,13.73-92.36,15.25-27.59,1.34-55.2,.35-82.59-3.97-48.53-7.66-89.24-30.88-125.05-63.44-26.08-23.71-48.21-50.93-69.09-79.27-16.85-22.87-33.87-45.6-55.04-64.96-21.35-19.52-45.13-35.14-71.1-47.53-8.06-3.85-15.93-8.31-24.72-10.52,0-79.65,0-159.3,0-238.95,.29,.59,.73,1.14,.86,1.76,9.34,43.99,29.12,83.46,52.82,121.15,17.4,27.68,39.2,51.55,64.21,72.64,26.46,22.31,55.92,39.59,87.38,53.62,22.68,10.12,46.28,17.84,69.71,25.99,15.56,5.41,31.02,11.11,45.64,18.85,22.16,11.73,42.8,25.62,61.7,42.13,11.3,9.87,21.75,20.58,32.33,31.19,14.08,14.14,25.37,30.87,40.85,43.67,10.16,8.4,21.34,14.64,34.47,17.2,17.95,3.5,35.81,.97,53.65-.59,20.5-1.8,40.86-4.48,61.61-2.93,28.13,2.1,54.66,9.39,80.02,21.42,18.53,8.79,35.46,20.46,53.62,29.94,28.28,14.75,58.03,21.83,89.92,17.71,23.13-2.99,46.13-1.68,69.05,1.47,37.11,5.1,72.03,17.57,105.85,33.2,26.92,12.44,53.84,24.79,82.51,32.82,8.16,2.29,8.09,2.56,9.36-5.55,.05-.33,.1-.66,.13-.99,3.69-34.39,14.36-66.57,30.7-96.95,1.57-2.92,3.75-5.53,4.51-8.86,1.9-1.25,2.65-3.37,3.8-5.16,13.32-20.85,28.99-39.7,47.59-56.07,8.2-7.91,17.71-14.21,26.48-21.41,1.58-.91,3.21-1.74,4.73-2.74,18.58-12.23,38.41-21.9,59.4-29.23,2.8-.98,5.84-1.34,8.3-3.21,18.79-4.26,37.45-9.28,56.84-10.19,2.23-.1,2.85-1.41,2.33-3.41-1.46-5.62-2.48-11.35-5.82-16.36-13.58-20.4-23.65-42.35-29.65-66.19-6.43-25.57-8.15-51.54-7.06-77.74,.84-20.18-6.96-37.31-17.86-53.41-7.77-11.48-17.8-21.07-27.19-31.18-6.15-6.62-11.33-13.9-15.71-21.81-9.99-18.02-13.69-38.12-19.32-57.6-8.31-28.71-21.07-54.75-42.93-76.04-9.37-9.12-19.05-18.15-27.08-28.62-6.25-8.15-11.31-16.86-11.98-27.46,47.66,0,95.32,0,142.97,0,.08,.99,.05,2.01,.25,2.98,4.3,20.88,9.75,41.48,16.57,61.67,7.56,22.4,15.49,44.67,23.54,66.9,9.55,26.37,14.12,54.04,21.53,80.98,7.14,25.96,9.56,52.96,15.04,79.32,1.18,5.66,1.76,11.44,2.62,17.17,1.78-5.29,2.45-10.52,3.41-15.69,4.91-26.46,8.75-53.13,14.59-79.41,1.41-6.32,4.16-12.35,5.36-18.69,3.99-21.14,9.57-41.86,16.31-62.24,9.98-30.18,22.05-59.64,30.7-90.27,3.98-14.09,7.57-28.26,10.04-42.71h142.97c-.66,10.61-5.51,19.5-12.03,27.43-10.48,12.74-22.8,23.78-33.88,35.97-7.42,8.16-13.86,16.99-19.2,26.68-11.8,21.4-17.8,44.78-23.94,68.15-5.68,21.62-15.49,40.89-31.43,57.04-10.02,10.15-20.01,20.5-27.36,32.96-8.75,14.84-14.85,30.29-14.29,48.07,.51,16.44,.57,32.9-1.69,49.33-4.42,32.11-14.02,62.26-31.96,89.48-4.08,6.19-7.08,12.72-8.58,20.05-.78,3.82,.36,4.63,3.84,4.8,4.97,.24,9.91,.95,14.86,1.52,13.76,1.58,27.05,5.43,40.51,8.46,.41,.26,.79,.64,1.25,.78,25.37,7.78,48.88,19.45,70.95,34.1,5.52,4.14,11.03,8.31,16.57,12.43,3.54,2.63,6.44,6.11,10.6,7.9,.01,1.34,1.03,1.99,1.88,2.77,18.28,16.65,33.96,35.47,47.03,56.46,.69,1.11,1.23,2.39,2.69,2.78,.13,2.26,1.35,4.1,2.42,5.96,8.21,14.17,14.79,29.06,20.21,44.49,6.87,19.56,10.96,39.73,13.36,60.26,.47,4,2.09,4.22,5.25,3.12,3.93-1.36,7.94-2.48,11.93-3.66,28.05-8.34,54.06-21.59,80.7-33.34,25.48-11.23,51.51-20.88,78.93-26.34,15.83-3.15,31.77-5.02,47.9-6.11,13.72-.92,27.2,.11,40.77,1.2,10.2,.82,20.42,3.02,30.64,.1v58.99c-26.36,7.42-53.17,11.43-80.6,12.32-9.06,.29-18.25-.11-27.34,1.48-10.29,1.79-20.72,2.72-31.18,3.31-12.26,.69-24.53,1.62-36.7,3.22-19.59,2.57-39.1,5.69-58.62,8.76-4.24,.67-8.7,.75-14.08,3.42,8.77,1.48,16.08,2.77,23.42,3.94,18.36,2.92,36.71,5.89,55.25,7.66,12.73,1.22,25.52,1.79,38.21,3.2,16.99,1.89,33.97,4.2,51.05,4.52,27.45,.51,54.23,4.79,80.6,12.16v58.99c-7.08-1.56-14.29-1.49-21.39-.85-17.2,1.56-34.28,3.5-51.68,2.09-13.44-1.09-26.79-2.41-40.04-4.79-36.37-6.53-70.28-20.27-103.49-35.86-22.65-10.64-45.62-20.29-69.69-27.24-9.44-2.73-9.5-2.83-10.54,6.74-3.73,34.38-14.28,66.58-30.65,96.95-1.57,2.92-3.77,5.52-4.55,8.84-.82,1.02-1.76,1.97-2.44,3.07-8.6,13.87-18.31,26.92-29.38,38.91-6.29,6.81-12.85,13.37-19.29,20.04-8.95,6.99-17.9,13.98-26.85,20.98-1.91,.27-3.25,1.62-4.77,2.61-14.8,9.7-30.38,17.9-46.83,24.44-6.93,2.76-13.95,5.29-20.94,7.92-.5,.05-1.01,.02-1.49,.15-18.34,4.75-36.75,9.14-55.78,10-2.55,.11-2.84,1.27-2.47,3.6,1.29,8.11,5.22,14.97,9.55,21.73,12.97,20.21,21.97,42.07,26.81,65.61Zm180.97-355.06c-.3-130.68-104.79-233.73-231.22-235.7-134.19-2.08-237.93,105.14-239.61,231.72-1.76,133.43,105.43,238.1,233.38,239,131.92,.93,237.05-105.62,237.44-235.03Z"/>
      <path class="cls-4" d="M594.16,.11c11.75,2.95,23.53,5.77,35.24,8.88,35.82,9.5,70.84,21.21,103.49,39.06,25.63,14.01,49.59,30.34,71.18,50.23,24.74,22.79,43.94,49.41,57.66,79.99,19.72,43.91,46.56,83.41,75.75,121.31,20.76,26.95,46.94,48.37,74.31,68.4,19.86,14.54,39.92,28.85,58.91,44.55,12.72,10.52,24.35,22.17,34.59,35.17,.58,.73,1.57,1.34,.83,3-2.67-1.08-5.48-1.97-8.06-3.29-26.95-13.83-55.27-24.96-81.1-40.97-20.12-12.47-39.07-26.51-56.61-42.49-16.22-14.77-32.89-29.06-49.28-43.65-11.18-9.95-22.53-19.74-33.25-30.17-27.45-26.71-59.81-44.97-95.39-58.66-37.11-14.28-75.51-23.82-113.69-34.37-41.56-11.48-80.63-28.41-115.24-54.73-25.06-19.06-46.7-41.47-66.24-66.05-17.23-21.69-32.46-44.7-45.85-68.93-1.28-2.31-2.17-4.84-3.25-7.27,18,0,35.99,0,53.99,0,.85,3.16,3.25,5.38,5.03,7.94,18.18,26.27,36.93,52.02,59.8,74.61,22.06,21.78,47.95,37.57,76.16,49.38,35.77,14.98,72.97,26.2,109.33,39.65,25.98,9.61,51.22,20.6,73.65,37.28,5.03,3.74,10.08,7.62,15.97,10.09-.21-2.09-1.47-3.67-2.58-5.33-17.72-26.3-37.69-50.59-61.64-71.6-17.74-15.56-36.75-29.01-57.82-39.65-19.61-9.91-39.81-18.54-59.69-27.87-27.85-13.07-55.68-26.23-82.36-41.62-16.59-9.57-32.12-20.68-46.86-32.89,24.33,0,48.66,0,72.99,0Z"/>
      <path class="cls-4" d="M1919.91,238.05c-26.78,10.56-50.55,25.77-71.86,45.16-26.44,24.05-53.52,47.39-80,71.4-18.52,16.8-37.65,32.68-58.54,46.5-20.24,13.39-42.21,23.35-63.93,33.84-10.04,4.85-20.13,9.61-30.22,14.36-1.13,.53-2.18,1.63-4.07,.78,3.22-5.73,7.87-10.19,12.12-14.89,19.48-21.5,43.34-37.75,66.33-55.05,18.74-14.1,38.09-27.46,55.52-43.18,18.2-16.42,34.48-34.72,48.57-54.83,22.74-32.47,45.31-65.04,61.32-101.59,9.75-22.25,22.49-42.68,38.28-61.13,8.11-9.47,16.59-18.63,26.48-26.34v79.98c-7.49,7.06-13.4,15.43-19.39,23.7-5.21,7.19-11.2,13.9-14.6,22.29,6.63-3.09,12.24-7.75,18.31-11.72,5.09-3.33,9.61-7.62,15.69-9.28v39.99Z"/>
      <path class="cls-4" d="M1704.95,1079.86c-6.97-6.95-15.3-12.18-23.14-18.01-20.4-15.19-41-30.13-58.27-49.02-4.32-4.73-8.83-9.35-12.64-15.48,4.21,.45,7.2,2.27,10.2,3.7,19.53,9.28,39.12,18.44,58.4,28.22,24.25,12.31,46.48,27.77,67.38,45.14,1.89,1.57,3.39,3.62,5.07,5.44h-46.99Z"/>
      <path class="cls-4" d="M966.09,1079.86c6.81-8.35,15.88-14.06,24.3-20.48,25.43-19.37,53.81-33.57,82.76-46.74,9.99-4.54,19.81-9.46,29.72-14.18,1.01-.48,2.1-.82,4.29-1.66-3.48,6.68-8.14,11.05-12.34,15.67-17.33,19.05-38.06,34.11-58.61,49.39-7.84,5.83-16.17,11.06-23.14,18.01h-46.99Z"/>
    </g>
    <g>
      <path class="cls-1" d="M.27,378.02c8.79,2.21,16.66,6.67,24.72,10.52,25.96,12.4,49.75,28.02,71.1,47.53,21.17,19.36,38.19,42.08,55.04,64.96,20.88,28.34,43.02,55.56,69.09,79.27,35.8,32.56,76.51,55.78,125.05,63.44,27.39,4.32,55,5.31,82.59,3.97,31.3-1.52,61.86-8.36,92.36-15.25,20.65-4.66,41.57-7.71,62.74-7.36,38.25,.63,74.84,9.14,109.62,25.11,26.47,12.15,52.24,25.84,80.33,34.23,23.61,7.06,47.16,14.32,71.71,17.23,10.04,1.19,20.15,1.96,30.29,2.43,14.74,.7,29.53,.81,44.18,3.43,8.63,1.54,17.5,1.85,26.28,2.34,19.59,1.1,39.03,3.52,58.4,6.51,13.13,2.03,26.23,4.32,39.34,6.52,.75,.13,1.72-.06,2.17,1.7-8.12,1.43-16.18,2.95-24.27,4.24-19.19,3.07-38.39,6.06-57.74,7.92-13.55,1.3-27.21,1.61-40.71,3.32-14.02,1.78-28.08,2.7-42.15,3.69-6.79,.48-13.6,.49-20.41,.96-21.86,1.5-43.16,5.79-64.11,11.87-20.15,5.85-40.31,11.73-59.47,20.45-14.7,6.69-29.12,14-43.85,20.6-27.04,12.12-55.16,20.14-84.77,23.48-31.53,3.55-62.32,.1-92.96-6.83-24.65-5.58-49.38-10.92-74.58-13.15-20.38-1.8-40.83-1.74-61.31-.44-18.98,1.21-37.69,3.66-56.12,8.28-21.7,5.44-41.57,15.07-60.61,26.59-26.92,16.28-49.37,37.84-70.57,60.68-19.25,20.75-35.36,44.09-52.44,66.61-11.36,14.98-22.96,29.82-36.52,42.87-18.53,17.83-38.94,33.17-61.7,45.41-11.9,6.4-24.24,11.8-36.44,17.52-1.32,.62-2.85,.8-4.28,1.18,0-230.61,0-461.23,0-691.84Z"/>
      <path class="cls-1" d="M1439,.11c-2.47,14.44-6.06,28.61-10.04,42.71-8.65,30.63-20.73,60.1-30.7,90.27-6.74,20.39-12.32,41.1-16.31,62.24-1.2,6.34-3.95,12.37-5.36,18.69-5.85,26.29-9.68,52.95-14.59,79.41-.96,5.18-1.63,10.41-3.41,15.69-.86-5.73-1.44-11.51-2.62-17.17-5.48-26.36-7.9-53.36-15.04-79.32-7.41-26.93-11.98-54.61-21.53-80.98-8.05-22.23-15.98-44.5-23.54-66.9-6.81-20.19-12.27-40.78-16.57-61.67-.2-.97-.17-1.98-.25-2.98,53.32,0,106.65,0,159.97,0Z"/>
      <path class="cls-1" d="M521.17,.11c14.74,12.22,30.27,23.32,46.86,32.89,26.68,15.39,54.51,28.54,82.36,41.62,19.88,9.33,40.07,17.96,59.69,27.87,21.07,10.64,40.08,24.08,57.82,39.65,23.95,21.01,43.93,45.29,61.64,71.6,1.12,1.66,2.37,3.24,2.58,5.33h0c-5.88-2.47-10.94-6.35-15.97-10.09-22.43-16.68-47.67-27.67-73.65-37.28-36.36-13.45-73.56-24.67-109.33-39.65-28.21-11.81-54.09-27.6-76.16-49.38-22.88-22.59-41.62-48.34-59.8-74.61-1.77-2.56-4.18-4.78-5.03-7.94h28.99Z"/>
      <path class="cls-1" d="M1919.91,755.93c-26.37-7.36-53.15-11.65-80.6-12.16-17.08-.32-34.06-2.63-51.05-4.52-12.68-1.41-25.48-1.98-38.21-3.2-18.53-1.77-36.88-4.73-55.25-7.66-7.33-1.17-14.64-2.46-23.42-3.94,5.38-2.67,9.84-2.75,14.08-3.42,19.52-3.07,39.03-6.19,58.62-8.76,12.17-1.6,24.44-2.52,36.7-3.22,10.47-.59,20.89-1.52,31.18-3.31,9.09-1.58,18.28-1.18,27.34-1.48,27.43-.89,54.24-4.9,80.6-12.32v63.99Z"/>
      <path class="cls-1" d="M1885.91,219.05c3.4-8.39,9.39-15.09,14.6-22.28,5.99-8.27,11.91-16.64,19.39-23.7v24.99c-6.08,1.66-10.6,5.95-15.69,9.28-6.06,3.97-11.68,8.63-18.3,11.72h0Z"/>
      <path class="cls-1" d="M1594.97,724.8c-.39,129.41-105.52,235.96-237.44,235.03-127.95-.9-235.15-105.57-233.38-239,1.67-126.59,105.41-233.81,239.61-231.72,126.43,1.96,230.92,105.02,231.22,235.7Z"/>
    </g>
  </g>
</svg>