<?xml version="1.0" encoding="utf-8"?>
<!-- Generator: Adobe Illustrator 26.3.1, SVG Export Plug-In . SVG Version: 6.00 Build 0)  -->
<svg version="1.1" id="Layer_1" xmlns="http://www.w3.org/2000/svg" xmlns:xlink="http://www.w3.org/1999/xlink" x="0px" y="0px"
	 viewBox="0 0 946.5 669.4" style="enable-background:new 0 0 946.5 669.4;" xml:space="preserve">
<style type="text/css">
	.st0{fill:#F29544;}
	.st1{fill:#FCC069;}
	.st2{fill:#FDFEFF;}
	.st3{fill:#B8C6D0;}
</style>
<g id="Layer_2_1_">
	<g id="Layer_1-2">
		<path class="st0" d="M33.1,582.7c-3.6,0.1-7-1.8-8.6-5.1c-1.9-3.3-1.7-7.4,0.5-10.5c0.8-1,1.6-2,2.5-2.9
			C60,529.8,92.4,495.4,124.9,461c0.8-1,1.8-1.8,2.8-2.6c3.7-2.7,8.9-2.6,12.4,0.4c3.7,3.1,4.6,8.5,2.1,12.6
			c-0.8,1.2-1.7,2.3-2.7,3.3c-32.6,34.5-65,68.9-97.5,103.3c-0.8,0.8-1.5,1.6-2.4,2.4C37.9,582,35.5,582.8,33.1,582.7z"/>
		<path class="st0" d="M248.5,587.6c0,22.7,0,45.4,0,68.1c0.1,1.8,0,3.5-0.2,5.3c-0.9,5.4-5.9,9.1-11.3,8.2
			c-4.4-0.7-7.8-4.3-8.3-8.8c-0.1-1.4-0.1-2.9-0.1-4.3V518.4c0-1.4,0-2.9,0.1-4.3c0.5-5.4,5.3-9.4,10.7-8.9c4.4,0.4,8,3.7,8.8,8.1
			c0.3,1.9,0.4,3.8,0.3,5.7C248.5,541.9,248.5,564.7,248.5,587.6z"/>
		<path class="st0" d="M583,61.7c0.1,2.6-0.9,5.1-2.8,7l-6.4,7.1L498,159.2c-0.9,0.9-1.7,1.9-2.6,2.8c-2.7,2.6-6.7,3.5-10.3,2.1
			c-3.6-1.2-5.7-4-6.5-7.7c-0.5-2.6,0.1-5.2,1.7-7.3c1-1.3,2-2.5,3.1-3.6c26.7-29.5,53.5-59,80.2-88.5c0.9-1.1,1.9-2.1,3-3.1
			c3-2.6,7.3-3.1,10.8-1.1C581.2,54.5,582.9,57.6,583,61.7z"/>
		<path class="st0" d="M405.3,69.3c0.9,16.9,1.7,33.8,2.6,50.8c0.1,2.7,0.3,5.4,0.3,8.1c0.1,5.4-4.1,9.8-9.5,10.1
			c-5.2,0.2-9.7-3.6-10.4-8.7c-0.1-0.8-0.2-1.6-0.2-2.4c-0.3-5.4-0.6-10.8-0.8-16.3c-0.8-16.8-1.5-33.5-2.3-50.3
			c-0.8-15.5-1.6-30.9-2.4-46.4c-0.1-1.6-0.2-3.2-0.1-4.8c0.4-5.5,5.2-9.6,10.7-9.2c4.8,0.4,8.6,4,9.2,8.8c0.4,4.4,0.5,8.9,0.8,13.4
			c0.4,9.2,0.8,18.5,1.3,27.8c0.3,6.4,0.7,12.8,1,19.2L405.3,69.3z"/>
		<path class="st1" d="M296.2,501.6c4.1,0.1,7,1.7,9,5c0.6,1.1,1.1,2.3,1.5,3.5c13,31.6,26,63.1,38.9,94.7c0.6,1.3,1,2.7,1.4,4.1
			c1.1,4.7-1.4,9.5-5.9,11.3c-4.4,1.9-9.6,0.3-12.2-3.8c-0.6-1.1-1.2-2.3-1.6-3.5c-13.1-31.9-26.2-63.7-39.3-95.6
			c-0.5-1-0.8-2.1-1.2-3.1c-1.5-5.2,1.6-10.7,6.8-12.1C294.6,501.8,295.4,501.6,296.2,501.6z"/>
		<path class="st1" d="M143.4,609.2c-5.5,0.1-10-4.3-10.1-9.8c0-0.5,0-1,0.1-1.4c0.3-1.6,0.7-3.1,1.3-4.6
			c12.4-31.8,24.8-63.7,37.3-95.5c1.3-3.4,3.1-6.2,6.8-7.5c3.4-1.3,7.2-0.5,9.8,2c2.8,2.3,4,6,3.1,9.5c-0.3,1.2-0.8,2.4-1.3,3.6
			c-12.3,31.7-24.7,63.4-37.1,95.1c-0.4,1.2-0.9,2.4-1.5,3.5C150.2,607.2,146.9,609.1,143.4,609.2z"/>
		<path class="st1" d="M86.1,434.2c0.1,2.9-1.3,5.7-3.7,7.5c-0.9,0.7-1.8,1.3-2.8,1.9l-57,38.1c-1.2,0.8-2.4,1.6-3.7,2.2
			c-5,2.2-10.9-0.1-13-5.1c-1.6-3.7-0.8-8,2-10.9c0.9-0.9,1.9-1.7,3-2.3c19.4-13,38.8-26,58.2-38.9c2-1.6,4.5-2.5,7.1-2.5
			C81.8,424.1,86,428.2,86.1,434.2z"/>
		<path class="st1" d="M312.2,76.1c-0.1-5.5,4.3-10,9.8-10.1c3.2-0.1,6.3,1.4,8.2,4c0.7,1.1,1.3,2.2,1.8,3.3
			c9.6,20.2,19.1,40.4,28.7,60.7c1,1.8,1.6,3.9,1.6,5.9c0,5.5-4.4,9.9-9.9,9.9c-3.2,0-6.2-1.5-8-4.1c-0.7-1.1-1.3-2.2-1.8-3.4
			c-9.6-20.2-19.1-40.5-28.7-60.7C313,79.9,312,78,312.2,76.1z"/>
		<path class="st1" d="M444.8,141.6c-5.4,0.1-9.8-4.2-9.8-9.6c0-0.2,0-0.4,0-0.5c0.1-1.8,0.5-3.5,1.2-5.1
			c7.5-20.9,15-41.8,22.5-62.7c0.4-1.2,0.9-2.4,1.5-3.5c2.7-4.8,8.7-6.5,13.4-3.8c3.2,1.8,5.2,5.3,5.1,9c-0.2,2.1-0.7,4.1-1.5,6
			c-5.5,15.5-11.1,31-16.7,46.5c-1.8,5-3.5,9.9-5.3,14.9c-0.4,1.2-0.9,2.4-1.4,3.6C452.1,139.6,448.6,141.7,444.8,141.6z"/>
		<path class="st2" d="M0,94.5v-3.8c0.1-3.5,2.9-6.3,6.3-6.3h165.3c6.4,0,10.1,0.8,11.4,6.8l11.4,46.1c0.4,2.1,0.4,4.6-1.3,5.5
			l-4.6,3c-7.6,4.2-24.1-37.2-52-37.2H71c-3,0-4.7,2.5-4.7,5.5V191c0,1.7,1.3,3,3.4,3h44.4c6.8,0,11-3,11-11.8c0-3,1.7-4.6,3.4-5.1
			l6.3-2.5c2.1-0.8,4.2,0,5.1,2.5l19.9,57.5c0.8,2.2-0.3,4.6-2.4,5.5h-0.1l-5.9,2.1c-11.4,4.6-16.5-25.4-38-25.4H69.8
			c-2.1,0-3.4,1.3-3.4,3v95.1c0,9.7-0.4,18.2-2.5,24.1c-0.4,0.8,0,1.7,0.8,1.7c65.1,3.8,136.5,103.6,196.6,103.1
			c38-0.4,40.2-49.5,69.3-49.5c11,0,18.6,11.4,18.6,21.1c0,29.2-38,53.3-91.3,53.3c-74,0-154.3-93.4-209.2-93.4
			c-16.9,0-30,5.1-39.7,5.1H6.4c-3.5-0.1-6.3-2.9-6.3-6.4v-3.8c0-9.3,15.6-7.6,15.6-21.6V116.1C15.7,102.1,0,103.4,0,94.5z"/>
		<path class="st2" d="M207.6,89.5c0-8.9,42.3-27,50.7-27c5.1,0,10.6,5.5,10.6,15.6v273c0,7.2,5.5,12.3,9.3,14.4
			c1.7,1.3,5.5,3.4,5.5,7.2v1.7c0,3.8-3.8,5.9-5.9,5.9h-64.3c-3.3,0-5.9-2.7-5.9-5.9v-1.7c0-3.8,3.4-5.9,5.1-7.2
			c3.8-2.1,9.7-7.6,9.7-14.4V111.4c0-6.3-7.6-11-11.4-13.1c-1.9-1-3.2-2.9-3.4-5.1L207.6,89.5L207.6,89.5z"/>
		<path class="st2" d="M306.1,275c0-68.9,48.2-108.6,97.6-108.6c55,0,85,36.3,85,68.5c0,23.7-20.3,35.1-31.3,35.1H354.7
			c-1.1-0.1-2,0.8-2.1,1.9c0,0.1,0,0.2,0,0.2c3.8,57.1,43.5,82.4,72.3,82.4c16.1,0,33-6.8,46.5-18.6c2.5-2.1,5.1-3.4,7.6-3.4
			c5.9,0,11.4,4.2,11.4,10.6c0,4.2-2.5,10.6-9.7,16.5c-17.8,15.6-39.7,23.7-65.5,23.7C357.6,383.3,306.1,343.9,306.1,275z
			 M354.7,251.4h75.2c11,0,15.2-6.4,15.2-19.4c0-15.6-10.1-46.1-41.8-46.1c-30,0-46.5,30.9-50.3,63c-0.4,1,0.1,2,1.1,2.4
			C354.3,251.3,354.5,251.4,354.7,251.4L354.7,251.4z"/>
		<path class="st2" d="M514,198.1v-3.8c0-7.2,37.2-27.1,45.2-27.1c5.5,0,9.7,5.9,10.6,15.6l2.2,19.4c0,1.3,0.4,1.7,0.8,0
			c7.2-20.3,30.4-37.6,57.1-37.6c42.3,0,75.2,30.4,75.2,90.5v96c0,7.2,9.3,12.3,13.1,14.4c2.1,0.9,5.9,3.4,5.9,7.2v1.7
			c0,3.8-3.8,5.9-5.9,5.9h-64.7c-3.1-0.3-5.5-2.8-5.5-5.9v-1.7c0-3.8,3-5.9,5.1-7.2c3.4-2.1,5.5-7.6,5.5-14.4v-96
			c0-47.4-20.7-63-37.2-63c-38,0-46.1,59.6-46.1,98.5v60.5c0,7.2,5.1,12.3,9.3,14.4c1.7,1.3,5.5,3.4,5.5,7.2v1.7
			c0,3.8-3.8,5.9-5.9,5.9H520c-3.3,0-5.9-2.7-5.9-5.9v-1.7c0-3.8,3.4-5.9,5.1-7.2c3.8-2.1,9.7-7.6,9.7-14.4V216.3
			c0-6.3-7.6-11.4-11.4-13.1C515.7,201.9,514,200.2,514,198.1z"/>
		<path class="st2" d="M823.9,251.4c22,0,41.4,10.1,47.8,16.5c1.3,0.9,2.1,0.9,2.1-0.8v-15.6c0-35.9-12.3-68.5-40.2-68.5
			c-14,0-27.9,12.2-27.9,33.8c0,11-5.9,21.6-22,21.6c-13.1,0-24.9-7.2-24.9-24.1c0-22.8,26.6-49,75.2-49c53.7,0,86.2,35.1,86.2,85.4
			v94.7c0,6.3,7.6,11,11.4,13.1c1.9,1,3.2,2.9,3.4,5.1v4.2c0,1.7-2.1,4.6-6.3,5.9c-18.2,6.8-39.3,10.1-42.3,10.1
			c-7.2,0-12.7-5.9-12.7-16.1v-15.2c0-1.7-0.4-2.1-1.3-0.4c-9.7,16.9-33.4,30.4-55.4,30.4c-51.6,0-75.2-27-75.2-60.9
			C741.9,279.7,776.6,251.4,823.9,251.4z M790.5,319.8c0,23.7,16.9,38.9,37.6,38.9c25.8,0,45.7-23.7,45.7-46.1v-3.4
			c0-19.9-15.6-39.3-38-39.3C814.6,270,790.5,288.6,790.5,319.8z"/>
		<path class="st3" d="M340,543.4l0.4-1.8c1-5.3,9.2-3.9,11.4-11L387,420.3c2-6.9-5.5-6.9-4.7-11l0.4-1.8c0.2-1.8,2.4-3.3,3.9-3.3
			h22.2c3.9,0,5.9,2.9,6.7,6.3l19.3,79.4c0.2,0.8,0.6,0.8,1.2,0l45.8-79.4c1.8-3.5,5.1-6.3,9.6-6.3h26.1c1.6,0,2.9,1.3,2.9,2.9
			c0,0.1,0,0.2,0,0.3l-0.4,1.8c-0.8,4.1-8.3,4.1-9,11l-9.8,110.3c-0.6,7.1,8.3,5.7,7.3,11l-0.4,1.8c-0.5,1.9-2.1,3.2-4.1,3.3h-40.1
			c-1.4,0.1-2.6-1-2.7-2.4c0-0.3,0-0.6,0.1-0.8l0.4-1.8c0.8-5.1,8.3-3.9,9-10.6l8.1-90.8c0-0.8-0.2-0.8-0.6,0l-51.5,92.6
			c-0.7,1.5-2.2,2.4-3.9,2.4h-7.3c-1.5,0.1-2.8-1-3.1-2.4l-19.5-86c-0.2-0.8-0.4-0.8-0.6,0.2l-24.6,83.6c-2,7.1,5.9,6.1,4.9,11
			l-0.4,1.8c-0.4,1.9-2,3.2-3.9,3.3h-25.6c-1.5,0-2.7-1.2-2.7-2.7C339.9,543.9,340,543.6,340,543.4z"/>
		<path class="st3" d="M514.1,504.2c6.3-32.4,37.2-61.2,69.4-61.2c10.8,0,16.1,3.9,25.8,3.9c6.5,0,8.3,4.7,7.3,9.6L603.8,518
			c-0.8,5.7-0.6,9.6,2.2,9.6c4.5,0,9.6-6.7,12.4-6.7c1.6,0.2,2.4,1.8,2,3.7c-1.8,9.2-16.1,21.8-29.5,21.8c-7.5,0-14.8-3.3-10.2-29.9
			c0.2-3.3,0-3.3-1.4-0.2c-10,20.3-23.8,30.5-35,30.5C520.8,546.7,508.6,533,514.1,504.2z M551.6,533.8c16.9,0,34.2-54.1,37.4-70.2
			c0.8-3.7-2.4-10.4-9-10.4c-13.8,0-32.4,24.6-37.7,50.9C538.1,526.3,542.2,533.8,551.6,533.8z"/>
		<path class="st3" d="M624.1,545.5l15-75.3c1.4-6.5-5.1-5.7-7.1-6.5c-1.4-0.4-3.2-1-3-3.5c1.2-6.9,26.9-16.1,32.8-16.1
			c2.4,0,4.9,2.5,4.1,7.1l-5.3,30.3c0,0.4,0.2,0.4,0.4,0c7.9-22.4,22.6-38.2,36.6-38.2c11.6,0,18.5,8.5,16.9,17.7
			c-1.6,9.6-10.6,15.1-17.3,15.1c-12.8,0-6.7-14-13.2-14c-10.2,0-25.4,42.9-32.8,80.4l-0.6,3.1c0,0.8-0.6,1.2-1.4,1.2h-23.8
			c-0.6,0.1-1.1-0.3-1.2-0.9C624.1,545.7,624.1,545.6,624.1,545.5z"/>
		<path class="st3" d="M720.1,513.9l12.2-60.6c0.2-0.6,0-0.8-0.6-0.8h-6.3c-2.2,0-3.7-1.8-3.3-4.3c0.5-2.2,2.4-3.9,4.7-4.1
			c10.2,0,20.8-16.1,26.5-28.5c1.4-2.6,3.2-4.3,5.7-4.3h3.9c3,0,3.7,2,3.2,4.9l-5.5,27.1c0,0.6,0.2,0.8,0.6,0.8H782
			c1.8,0,3.3,1.4,3.3,3.2c0,0.3,0,0.6-0.1,0.9c-0.4,2.3-2.3,4.1-4.7,4.3h-20.8c-0.6,0-0.8,0.2-1,0.8l-12.2,60.6
			c-1.8,9.8-1.2,14.8,3.9,14.8c6.5,0,12.2-7.5,15-7.5c1.6,0.2,2.5,1.8,2.2,3.7c-2,9.4-14.8,21.8-29.9,21.8
			C723.4,546.7,716.4,536.1,720.1,513.9z"/>
		<path class="st3" d="M786.2,518.4l10.8-49.6c1.4-6.5-5.1-5.7-7.3-6.5c-1.2-0.4-3-1.2-2.8-3.5c1.4-7.7,28.3-16.1,34.8-16.1
			c3,0,5.1,2.6,4.1,7.5l-14,68.2c-0.8,5.5-0.8,9.4,2.2,9.4c4.7,0,9.8-6.7,12.4-6.7c1.8,0.2,2.4,1.8,2.2,3.7c-2,9.2-14.9,22-28.3,22
			C789.9,546.7,782.8,540,786.2,518.4z M802.9,414.6c1.6-8.9,9.3-15.4,18.3-15.7c8.8,0,14.5,6.9,13,15.7
			c-1.6,8.9-9.3,15.4-18.3,15.7C807.2,430.3,801.5,423.4,802.9,414.6z"/>
		<path class="st3" d="M836,544.4l15-75.4c1.4-6.3-5.1-5.5-7.1-6.3c-1.4-0.4-3.3-1.2-3.1-3.5c1.2-7.1,26.9-16.1,33-16.1
			c3.2,0,4.9,2.9,4.1,7.5l-5.1,29.7c0,0.6,0.2,0.8,0.6,0.2c8.3-23.8,22.2-38.7,37.6-38.7c22,0,31.3,15.9,25.6,43.5l-6.9,33
			c-0.8,5.5-0.8,9.4,2,9.4c4.7,0,9.8-6.7,12.6-6.7c1.6,0.2,2.2,1.8,2,3.7c-1.8,9.2-15.5,22-29.1,22c-10.4,0-17.7-6.7-14-28.3l6.9-33
			c4.7-21.6-1-28.5-8.5-28.5c-16.7,0-32.5,55.8-38.7,84.5l-0.6,3c0,0.8-0.6,1.2-1.4,1.2h-24C836.4,545.7,836,545.3,836,544.4z"/>
	</g>
</g>
</svg>
