<?xml version="1.0" encoding="UTF-8"?><svg id="Layer_2" xmlns="http://www.w3.org/2000/svg" viewBox="0 0 411.98 168.7"><defs><style>.cls-1{fill:#fff;}.cls-2{opacity:.5;}</style></defs><g id="Layer_1-2"><g><g><path class="cls-1" d="M35.14,127.67h-10.42c-16.78,0-24.72-7.95-24.72-24.72V28.78C0,12.01,7.95,4.06,24.72,4.06h41.85c16.78,0,24.72,7.95,24.72,24.72V102.95c0,16.78-7.95,24.72-24.72,24.72h-10.24v22.43h-21.19v-22.43Zm28.43-19.42c4.77,0,6.53-1.77,6.53-6.53V30.02c0-4.77-1.77-6.53-6.53-6.53H27.9c-4.94,0-6.71,1.77-6.71,6.53V101.72c0,4.77,1.77,6.53,6.71,6.53H63.57Z"/><path class="cls-1" d="M115.13,0h21.72V20.48h-21.72V0Zm.71,32.32h20.31V127.67h-20.31V32.32Z"/><path class="cls-1" d="M163.69,4.06h23.84l35.67,78.58L258.88,4.06h23.84V127.67h-20.84V40.26l-30.9,70.46h-16.25l-30.9-70.46V127.67h-20.13V4.06Z"/></g><g><path class="cls-1" d="M327.61,3.28c27.76,0,55.52,0,83.28,0-.03,.51-.09,1.02-.09,1.53,0,19.39,0,38.77,.01,58.16,0,.8-.19,1.4-.78,1.99-12.6,12.57-25.19,25.16-37.76,37.76-.51,.52-1.01,.74-1.75,.74-5.15-.03-10.31-.01-15.46-.02-.58,0-1.03,.1-1.47,.54-6.77,6.8-13.56,13.58-20.32,20.38-.18,.18-.72,.27-.42,.75h-.48c0-6.82-.02-13.63,.03-20.45,0-.98-.23-1.25-1.23-1.24-7.77,.04-15.54,.02-23.31,.02q-1.58,0-1.58-1.62c0-25.13,0-50.26-.02-75.39,0-1.05,.33-1.76,1.06-2.48,6.58-6.54,13.13-13.1,19.68-19.68,.26-.26,.84-.41,.61-1Zm24.63,89c4.73-4.74,9.4-9.37,14.01-14.07,.71-.72,1.41-.97,2.38-.96,5,.04,9.99,0,14.99,.03,.68,0,1.17-.17,1.67-.66,5.37-5.4,10.75-10.78,16.15-16.15,.46-.45,.65-.91,.65-1.55-.02-15.27-.02-30.53,0-45.8,0-.89-.24-1.14-1.13-1.14-22.48,.02-44.96,.02-67.45,0-.9,0-1.13,.27-1.13,1.15,.02,21.02,.02,42.03,0,63.05,0,.92,.29,1.11,1.15,1.11,5.79-.04,11.58,0,17.37-.04,.9,0,1.14,.24,1.13,1.13-.04,4.16-.02,8.33-.01,12.49,0,.42-.12,.86,.22,1.41Z"/><path class="cls-1" d="M388.99,40.27c0,3.96-.03,7.93,.02,11.89,.01,.98-.31,1.18-1.2,1.16-2.18-.06-4.36-.05-6.54,0-.81,.02-1-.27-1-1.02,.02-8,.02-16.01,0-24.01,0-.73,.15-1.07,.98-1.05,2.26,.05,4.52,.05,6.77,0,.82-.02,.97,.3,.97,1.03-.03,4-.01,8-.01,12.01Z"/><path class="cls-1" d="M365.04,40.29c0,3.96-.03,7.93,.02,11.89,.01,.88-.23,1.16-1.13,1.13-2.18-.06-4.36-.05-6.54,0-.74,.01-1.03-.16-1.02-.97,.03-8.05,.03-16.1,0-24.14,0-.71,.18-.97,.93-.96,2.26,.04,4.52,.05,6.78,0,.82-.02,.98,.32,.98,1.05-.03,4-.01,8.01-.01,12.01Z"/></g></g><g class="cls-2"><path class="cls-1" d="M82.84,142.8h5.11l-.55,3.11c1.59-1.85,3.11-3.11,6.07-3.11h1.59l-.85,4.81h-2.48c-1.89,0-3.22,.37-4.81,1.18l-2.48,13.99h-5.11l3.52-19.98Z"/><path class="cls-1" d="M112.7,147.61l-1.15,6.62h-11.17l-.63,3.59c-.11,.59,.07,.81,.63,.81h4.48c.59,0,.85-.22,.96-.81l.26-1.55h5.11l-.3,1.7c-.59,3.29-2.37,4.81-5.59,4.81h-6.85c-3.22,0-4.44-1.52-3.85-4.81l1.81-10.36c.59-3.29,2.33-4.81,5.55-4.81h6.85c3.22,0,4.48,1.52,3.89,4.81Zm-5.81-.67h-4.48c-.56,0-.81,.22-.89,.81l-.52,3.03h6.03l.56-3.03c.07-.59-.11-.81-.7-.81Z"/><path class="cls-1" d="M114.21,157.97l.33-1.81h5.03l-.33,1.81c-.11,.59,.07,.81,.63,.81h4.4c.59,0,.85-.22,1.11-1.7,.3-1.78,.15-1.96-.7-2.11l-5.25-.89c-3.03-.52-4.03-1.44-3.33-5.37,.78-4.4,2.52-5.92,5.74-5.92h5.92c3.26,0,4.48,1.52,3.89,4.81l-.26,1.48h-5.03l.26-1.48c.11-.59-.07-.81-.67-.81h-3.7c-.56,0-.81,.22-1.04,1.52-.3,1.63-.15,1.78,.74,1.92l5.25,.89c3,.52,4,1.44,3.26,5.55-.81,4.59-2.55,6.11-5.77,6.11h-6.62c-3.22,0-4.44-1.52-3.85-4.81Z"/><path class="cls-1" d="M136.82,142.8h5.11l-.52,2.96c1.63-1.85,3.11-3.11,6.81-3.11,4,0,5.18,1.52,4.51,5.18l-1.74,9.92c-.63,3.66-2.37,5.18-6.36,5.18-3.7,0-4.74-1.26-5.7-3.11l-1.55,8.88h-5.11l4.55-25.9Zm9.21,14.36l1.52-8.73c.19-.96,0-1.18-1.22-1.18-2.44,0-3.77,.37-5.4,1.18l-1.52,8.73c1.33,.81,2.52,1.18,4.96,1.18,1.22,0,1.48-.22,1.67-1.18Z"/><path class="cls-1" d="M154.84,157.97l1.81-10.36c.59-3.29,2.33-4.81,5.55-4.81h7.07c3.22,0,4.44,1.52,3.85,4.81l-1.81,10.36c-.59,3.29-2.33,4.81-5.55,4.81h-7.07c-3.22,0-4.44-1.52-3.85-4.81Zm10.51,.37c.59,0,.85-.22,.96-.81l1.67-9.47c.11-.59-.07-.81-.67-.81h-4.7c-.59,0-.81,.22-.93,.81l-1.67,9.47c-.11,.59,.04,.81,.63,.81h4.7Z"/><path class="cls-1" d="M178.3,142.8h5.11l-.52,2.92c1.63-1.85,3.11-3.11,6.66-3.11,3.85,0,5.07,1.52,4.44,4.96l-2.66,15.21h-5.11l2.59-14.62c.11-.74-.07-.96-1.11-.96-2.37,0-3.66,.37-5.25,1.18l-2.55,14.39h-5.11l3.52-19.98Z"/><path class="cls-1" d="M195.87,157.97l.33-1.81h5.03l-.33,1.81c-.11,.59,.07,.81,.63,.81h4.4c.59,0,.85-.22,1.11-1.7,.3-1.78,.15-1.96-.7-2.11l-5.25-.89c-3.03-.52-4.03-1.44-3.33-5.37,.78-4.4,2.52-5.92,5.74-5.92h5.92c3.26,0,4.48,1.52,3.89,4.81l-.26,1.48h-5.03l.26-1.48c.11-.59-.07-.81-.67-.81h-3.7c-.56,0-.81,.22-1.04,1.52-.3,1.63-.15,1.78,.74,1.92l5.25,.89c3,.52,4,1.44,3.26,5.55-.81,4.59-2.55,6.11-5.77,6.11h-6.62c-3.22,0-4.44-1.52-3.85-4.81Z"/><path class="cls-1" d="M218.44,142.8h5.11l-3.52,19.98h-5.11l3.52-19.98Zm1.11-7.03h5.4l-.85,4.81h-5.4l.85-4.81Z"/><path class="cls-1" d="M226.43,142.8h5.29l1.15,15.43,6.55-15.43h5.44l-9.92,19.98h-5.62l-2.89-19.98Z"/><path class="cls-1" d="M262.58,147.61l-1.15,6.62h-11.17l-.63,3.59c-.11,.59,.07,.81,.63,.81h4.48c.59,0,.85-.22,.96-.81l.26-1.55h5.11l-.3,1.7c-.59,3.29-2.37,4.81-5.59,4.81h-6.85c-3.22,0-4.44-1.52-3.85-4.81l1.81-10.36c.59-3.29,2.33-4.81,5.55-4.81h6.85c3.22,0,4.48,1.52,3.89,4.81Zm-5.81-.67h-4.48c-.56,0-.81,.22-.89,.81l-.52,3.03h6.03l.55-3.03c.07-.59-.11-.81-.7-.81Z"/><path class="cls-1" d="M273.24,157.97l1.81-10.36c.59-3.29,2.33-4.81,5.55-4.81h6.36c3.22,0,4.44,1.52,3.85,4.81l-.44,2.52h-5.07l.37-2.07c.11-.59-.07-.81-.67-.81h-4c-.55,0-.81,.22-.92,.81l-1.67,9.47c-.11,.59,.07,.81,.63,.81h4c.59,0,.85-.22,.96-.81l.37-2.07h5.07l-.44,2.52c-.59,3.29-2.33,4.81-5.55,4.81h-6.36c-3.22,0-4.44-1.52-3.85-4.81Z"/><path class="cls-1" d="M296.84,135.77h5.11l-1.78,9.95c1.63-1.85,3.11-3.11,6.66-3.11,3.85,0,5.07,1.52,4.44,4.96l-2.66,15.21h-5.11l2.59-14.62c.11-.74-.07-.96-1.11-.96-2.37,0-3.66,.37-5.25,1.18l-2.55,14.39h-5.11l4.77-27.01Z"/><path class="cls-1" d="M313.6,157.74l1.74-9.92c.67-3.66,2.41-5.18,6.36-5.18,3.7,0,4.77,1.26,5.74,3.11l.52-2.96h5.07l-3.51,19.98h-5.07l.52-2.96c-1.63,1.85-3.14,3.11-6.85,3.11-3.96,0-5.14-1.52-4.51-5.18Zm11.84-.59l1.52-8.73c-1.33-.81-2.52-1.18-4.96-1.18-1.22,0-1.48,.22-1.67,1.18l-1.52,8.73c-.18,.96,0,1.18,1.22,1.18,2.44,0,3.77-.37,5.4-1.18Z"/><path class="cls-1" d="M336.06,157.97l1.92-11.03h-2.92l.74-4.14h3l.85-4.81h4.96l-.85,4.81h4.26l-.74,4.14h-4.18l-1.89,10.8c-.11,.59,.04,.81,.63,.81h3.4l-.74,4.22h-4.59c-3.22,0-4.44-1.52-3.85-4.81Z"/><path class="cls-1" d="M362.37,159.82l-.52,2.96h-5.11l4.77-27.01h5.11l-1.78,9.99c1.63-1.85,3.11-3.11,6.81-3.11,4,0,5.18,1.52,4.51,5.18l-1.74,9.92c-.63,3.66-2.37,5.18-6.36,5.18-3.7,0-4.74-1.26-5.7-3.11Zm7.1-2.66l1.52-8.73c.19-.96,0-1.18-1.22-1.18-2.44,0-3.77,.37-5.4,1.18l-1.52,8.73c1.33,.81,2.52,1.18,4.96,1.18,1.22,0,1.48-.22,1.67-1.18Z"/><path class="cls-1" d="M378.28,157.97l1.81-10.36c.59-3.29,2.33-4.81,5.55-4.81h7.07c3.22,0,4.44,1.52,3.85,4.81l-1.81,10.36c-.59,3.29-2.33,4.81-5.55,4.81h-7.07c-3.22,0-4.44-1.52-3.85-4.81Zm10.51,.37c.59,0,.85-.22,.96-.81l1.67-9.47c.11-.59-.07-.81-.67-.81h-4.7c-.59,0-.81,.22-.92,.81l-1.67,9.47c-.11,.59,.04,.81,.63,.81h4.7Z"/><path class="cls-1" d="M400.03,157.97l1.92-11.03h-2.92l.74-4.14h3l.85-4.81h4.96l-.85,4.81h4.26l-.74,4.14h-4.18l-1.89,10.8c-.11,.59,.04,.81,.63,.81h3.4l-.74,4.22h-4.59c-3.22,0-4.44-1.52-3.85-4.81Z"/></g></g></svg>