<?xml version="1.0" encoding="UTF-8"?><svg id="Layer_2" xmlns="http://www.w3.org/2000/svg" viewBox="0 0 1229.82 375.02"><defs><style>.cls-1{fill:#fff;}.cls-2{fill:#f5d68c;}.cls-3{fill:#db9673;}.cls-4{fill:#60ac92;}</style></defs><g id="Layer_1-2"><g id="Layer_2-2"><g id="Layer_1-2"><path class="cls-3" d="M260.18,364.99v-26.88h-29.8c-16.48,0-27.12-11.73-27.12-29.9v-28.85c-18.49-1.02-37.04-.69-55.48,1,14,12.85,21.45,22.75,21.89,23.34,1.58,2.21,1.07,5.27-1.14,6.85-2.14,1.53-5.11,1.1-6.73-.98-.15-.2-15.07-20-42.24-39.53-27.3-18-64.92-34.6-111.41-35.2-4.42-.08-8.07,3.43-8.15,7.85,0,.05,0,.1,0,.15v123.86C0,371.12,3.58,374.7,8,374.7h254.55c-1.56-3-2.37-6.33-2.37-9.71Z"/><path class="cls-3" d="M327.02,307.22v57.77c0,3.37-.79,6.69-2.33,9.68h40.32c4.42,0,8-3.58,8-8v-23c0-3.86-1.26-7.61-3.59-10.68-4.76-6.3-19.8-16.17-42.4-25.77Z"/><path class="cls-4" d="M350.18,196.87h-2.39c-12.61,0-22.83,8.9-22.83,24v2.53h-8v-47c0-15.14-10.22-24-22.83-24h-3.11c-12.61,0-22.83,8.89-22.83,24v99.8h-6.73v-2.54c0-15.13-10.22-24-22.83-24h-2.45c-12.6,0-22.83,8.9-22.83,24v34.56c0,10.69,4.78,19.81,17,19.81h39.9v37c0,5.34,3.61,9.68,8.07,9.68h30.48c4.45,0,8.07-4.34,8.07-9.68v-89.77h39c12.35,0,17-9.11,17-19.81v-34.55c.14-15.13-10.08-24.03-22.69-24.03Z"/><circle class="cls-2" cx="141.71" cy="126.12" r="71.22"/><path class="cls-2" d="M228.18,126.12c0-3.72,3.01-6.73,6.73-6.73h26.93c3.72,0,6.73,3.01,6.73,6.73s-3.01,6.73-6.73,6.73h-26.97c-3.7-.02-6.69-3.03-6.69-6.73Z"/><path class="cls-2" d="M14.88,126.12c0-3.72,3.01-6.73,6.73-6.73h26.93c3.72,0,6.73,3.01,6.73,6.73s-3.01,6.73-6.73,6.73H21.61c-3.72,0-6.73-3.01-6.73-6.73Z"/><path class="cls-2" d="M141.71,40.38c-3.72,0-6.73-3.01-6.73-6.73h0V6.72C134.98,3.01,138,0,141.72,0c3.71,0,6.72,3.01,6.72,6.72v26.93c0,3.72-3.01,6.73-6.73,6.73Z"/><path class="cls-2" d="M141.7,252.25c-3.72,0-6.73-3.01-6.73-6.73h0v-26.93c0-3.72,3.01-6.73,6.72-6.74,3.72,0,6.73,3.01,6.74,6.72v26.94c0,3.72-3,6.73-6.72,6.74h0Z"/><path class="cls-2" d="M216.56,82.9c-1.86-3.21-.76-7.32,2.45-9.18h.01l23.32-13.48c3.22-1.86,7.34-.75,9.2,2.46,1.86,3.22,.75,7.34-2.46,9.2l-23.32,13.47c-3.22,1.86-7.33,.75-9.19-2.47Z"/><path class="cls-2" d="M31.87,189.53c-1.86-3.22-.75-7.34,2.47-9.2l23.32-13.46c3.22-1.86,7.34-.75,9.2,2.46s.75,7.34-2.46,9.2h0l-23.32,13.46c-3.22,1.86-7.33,.76-9.2-2.45h0Z"/><path class="cls-2" d="M184.92,51.27c-3.22-1.86-4.32-5.97-2.46-9.19h0l13.46-23.33c1.86-3.22,5.98-4.32,9.2-2.47,3.22,1.86,4.32,5.98,2.46,9.2h0l-13.46,23.32c-1.86,3.22-5.98,4.32-9.2,2.47Z"/><path class="cls-2" d="M78.29,235.99c-3.22-1.86-4.32-5.97-2.46-9.19h0l13.46-23.33c1.86-3.22,5.98-4.32,9.2-2.46,3.22,1.86,4.32,5.98,2.46,9.2h0l-13.46,23.28c-1.84,3.23-5.95,4.35-9.18,2.51h-.02Z"/><path class="cls-2" d="M184.92,200.99c3.22-1.86,7.33-.76,9.2,2.45h0l13.46,23.33c1.86,3.22,.76,7.34-2.46,9.2-3.22,1.86-7.34,.76-9.2-2.46h0l-13.46-23.32c-1.86-3.22-.76-7.33,2.45-9.2h0Z"/><path class="cls-2" d="M78.29,16.28c3.22-1.85,7.34-.75,9.2,2.47l13.46,23.32c1.86,3.22,.75,7.34-2.46,9.19-3.22,1.86-7.34,.75-9.2-2.47l-13.46-23.32c-1.86-3.22-.76-7.33,2.45-9.2h0Z"/><path class="cls-2" d="M216.56,169.33c1.85-3.22,5.96-4.32,9.18-2.47h.01l23.32,13.47c3.22,1.86,4.32,5.98,2.46,9.2s-5.98,4.32-9.2,2.46h0l-23.32-13.46c-3.22-1.86-4.32-5.97-2.46-9.19h0Z"/><path class="cls-2" d="M31.87,62.71c1.86-3.22,5.98-4.33,9.2-2.47l23.32,13.47c3.22,1.86,4.32,5.98,2.46,9.19-1.86,3.22-5.98,4.32-9.19,2.47l-23.32-13.47c-3.22-1.86-4.33-5.97-2.47-9.19Z"/><path class="cls-2" d="M370.33,152.41c-2.12-4.68-4.86-9.05-8.15-13,4.79,12-1.89,17.21-1.89,17.21,0,0,3.59-9.91-8.38-17.21-9.55-5.82-6.53-17.35-6.53-17.35,0,0-12.72,10.73-5.34,23.34,5.95,10.17-.47,15.76-.47,15.76-5.09-1.8-3.72-8.14-3.72-8.14-7.08,5.42-10.33,17.91-9.69,22.05,.54,5.38,5,14.67,19.85,17.41-.81-.43-1.55-.99-2.19-1.65,0,0-7.54-9.59,0-17.13,0,0-.65,7.62,3,8.56,0,0,11.36-8.56,3.16-17.09,0,0,19.69,10.58,4.38,25.66-.84,.86-1.84,1.54-2.94,2,20.98-.73,26.97-23.65,18.91-40.42Z"/><path class="cls-1" d="M549.8,53.76l-6.55,5.03c-1.48,1.14-3.6,.9-4.79-.53-5.95-7.16-13.37-12.96-21.76-17-9.55-4.51-20.01-6.8-30.57-6.67-11.81-.08-23.44,2.94-33.72,8.75-10.01,5.49-18.33,13.61-24.06,23.48-5.79,10.08-8.77,21.53-8.63,33.15,0,18.53,6.36,34.01,19.09,46.45,12.73,12.44,28.78,18.64,48.16,18.62,20.29,0,37.42-7.56,51.39-22.68,1.22-1.32,3.24-1.5,4.67-.41l6.53,4.96c1.54,1.17,1.84,3.37,.67,4.91-.05,.06-.09,.12-.14,.17-7.18,8.29-16.06,14.95-26.03,19.52-11.94,5.4-24.92,8.1-38.02,7.92-26.63,0-47.63-8.86-63.01-26.59-12.87-14.96-19.31-33.02-19.31-54.18,0-22.28,7.81-41.03,23.44-56.24,15.62-15.21,35.2-22.83,58.71-22.85,14.21,0,27.04,2.81,38.48,8.43,10.12,4.9,19.01,12.01,26.01,20.81,1.21,1.51,.98,3.71-.53,4.92l-.03,.02Z"/><path class="cls-1" d="M645.99,25.1l67.82,145.52c.82,1.75,.06,3.82-1.68,4.64-.46,.22-.97,.33-1.48,.33h-8.74c-1.34,0-2.57-.77-3.15-1.98l-22-46.05c-.58-1.21-1.8-1.99-3.15-1.99h-61.15c-1.35,0-2.58,.78-3.16,2l-21.82,46.08c-.58,1.22-1.81,1.99-3.16,1.99h-9.24c-1.93,0-3.49-1.56-3.49-3.49,0-.52,.11-1.02,.33-1.49L640.68,25.13c.49-1.02,1.52-1.68,2.66-1.68h0c1.13,0,2.16,.63,2.66,1.65Zm-4.83,35.09l-21.6,45.65c-.83,1.74-.09,3.82,1.65,4.65,.47,.22,.99,.34,1.51,.34h41c1.93,0,3.49-1.56,3.49-3.49,0-.52-.11-1.02-.33-1.49l-21.47-45.65c-.53-1.17-1.92-1.69-3.09-1.16-.51,.23-.92,.64-1.16,1.15h0Z"/><path class="cls-1" d="M878.75,53.76l-6.53,5.03c-1.48,1.14-3.6,.9-4.79-.53-5.95-7.16-13.37-12.96-21.76-17-9.55-4.51-20.01-6.79-30.57-6.67-11.82-.08-23.45,2.94-33.73,8.75-10,5.49-18.32,13.61-24.05,23.48-5.75,10.09-8.69,21.54-8.51,33.15,0,18.53,6.36,34.01,19.09,46.45,12.73,12.44,28.78,18.64,48.16,18.62,20.28,0,37.41-7.56,51.39-22.68,1.22-1.32,3.24-1.5,4.67-.41l6.53,4.96c1.54,1.17,1.84,3.37,.67,4.91-.05,.06-.09,.12-.14,.17-7.18,8.29-16.06,14.95-26.03,19.52-11.94,5.4-24.92,8.1-38.02,7.92-26.62,0-47.63-8.86-63.01-26.59-12.9-14.96-19.35-33.04-19.36-54.21,0-22.28,7.81-41.03,23.44-56.24,15.62-15.21,35.2-22.81,58.71-22.81,14.21,0,27.04,2.81,38.49,8.43,10.12,4.9,19.01,12.01,26.01,20.81,1.18,1.53,.91,3.73-.62,4.91l-.04,.03Z"/><path class="cls-1" d="M896.93,34.8v-7.92c0-1.93,1.57-3.48,3.49-3.49h76.4c1.93,0,3.49,1.56,3.49,3.49h0v7.92c0,1.92-1.55,3.48-3.47,3.49,0,0-.01,0-.02,0h-30.44V172.1c0,1.93-1.56,3.49-3.49,3.49h-8.54c-1.93,0-3.49-1.56-3.49-3.49h0V38.29h-30.44c-1.93,0-3.49-1.56-3.49-3.49Z"/><path class="cls-1" d="M1006.26,23.4h8.27c1.93,0,3.48,1.57,3.49,3.49V115.33c0,10.9,.21,17.69,.62,20.38,.53,5.37,2.34,10.53,5.27,15.05,2.76,4.04,7,7.42,12.73,10.14,5.38,2.64,11.28,4.04,17.28,4.09,5,0,9.93-1.09,14.45-3.21,4.49-2.04,8.45-5.08,11.58-8.89,3.24-4.06,5.57-8.78,6.84-13.82,1.03-3.86,1.55-11.79,1.56-23.79V26.89c0-1.93,1.56-3.49,3.49-3.49h8.23c1.93,0,3.48,1.57,3.49,3.49V115.33c0,13.59-1.33,24.57-3.99,32.95-2.66,8.38-7.97,15.68-15.93,21.88-7.96,6.2-17.6,9.31-28.91,9.32-12.27,0-22.79-2.93-31.55-8.79-8.43-5.44-14.66-13.68-17.59-23.28-1.85-5.93-2.78-16.62-2.79-32.08V26.94c-.03-1.93,1.51-3.52,3.43-3.55h.02Z"/><path class="cls-1" d="M1128.19,145.49l6.95-4.17c1.65-.99,3.8-.45,4.79,1.2v.02c8.71,14.72,18.65,22.08,29.83,22.08,5.01,.02,9.95-1.2,14.38-3.57,4.25-2.16,7.8-5.48,10.24-9.57,2.31-3.85,3.52-8.25,3.52-12.73-.11-5.42-1.92-10.67-5.18-15-4.76-6.76-13.45-14.91-26.07-24.46-12.62-9.55-20.52-16.48-23.69-20.8-5.19-6.63-8.02-14.79-8.07-23.2-.07-6.36,1.58-12.61,4.77-18.11,3.18-5.46,7.82-9.92,13.4-12.89,5.76-3.14,12.22-4.75,18.78-4.7,7.06-.03,14,1.81,20.12,5.33,5.6,3.19,11.5,8.78,17.68,16.78,1.19,1.54,.9,3.74-.63,4.93h-.01l-6.88,5.23c-1.52,1.14-3.68,.86-4.86-.63-4.83-6.07-9.01-10.17-12.54-12.29-3.97-2.41-8.54-3.68-13.19-3.66-6.14,0-11.16,1.85-15.05,5.56-3.82,3.54-5.95,8.55-5.85,13.76,0,3.32,.71,6.59,2.07,9.62,1.89,3.8,4.45,7.24,7.55,10.14,2,1.93,8.56,7,19.67,15.21,13.16,9.76,22.2,18.43,27.11,26.02,4.91,7.58,7.35,15.2,7.34,22.86,0,11.04-4.19,20.63-12.56,28.76-8.12,8.04-19.15,12.46-30.57,12.23-8.93,.09-17.68-2.49-25.14-7.4-6.85-4.49-13.21-11.74-19.09-21.76-.98-1.66-.44-3.79,1.21-4.78Z"/><path class="cls-1" d="M540.17,249.36l-6.55,5.01c-1.48,1.13-3.58,.9-4.78-.52-5.95-7.16-13.38-12.97-21.77-17.01-9.56-4.51-20.01-6.79-30.57-6.67-11.81-.09-23.44,2.93-33.72,8.74-10.01,5.49-18.33,13.62-24.06,23.49-5.76,10.09-8.71,21.54-8.54,33.15,0,18.53,6.36,34.01,19.09,46.45,12.73,12.44,28.78,18.64,48.16,18.62,20.29,0,37.43-7.56,51.4-22.68,1.22-1.31,3.23-1.49,4.66-.41l6.54,4.96c1.54,1.18,1.83,3.39,.65,4.93-.04,.05-.08,.1-.13,.15-7.18,8.3-16.05,14.95-26.03,19.52-11.94,5.41-24.92,8.11-38.02,7.92-26.62,0-47.62-8.86-63.01-26.59-12.9-14.96-19.35-33.04-19.35-54.21,0-22.28,7.81-41.03,23.44-56.24,15.62-15.21,35.2-22.81,58.71-22.81,14.21,0,27.04,2.81,38.49,8.44,10.12,4.89,19.01,12.01,25.99,20.81,1.2,1.52,.94,3.72-.58,4.92l-.04,.03Z"/><path class="cls-1" d="M636.42,220.69l67.82,145.54c.82,1.75,.06,3.82-1.68,4.64-.46,.22-.96,.33-1.47,.33h-8.75c-1.34,0-2.57-.78-3.15-1.99l-22.04-46.11c-.59-1.21-1.81-1.98-3.16-1.98h-61.15c-1.35,0-2.58,.77-3.16,1.99l-21.81,46.08c-.58,1.22-1.81,2-3.16,2h-9.25c-1.93,0-3.5-1.58-3.49-3.51,0-.51,.12-1.02,.33-1.48l68.77-145.52c.48-1.02,1.51-1.68,2.65-1.68h0c1.16-.02,2.21,.64,2.7,1.69Zm-4.83,35.1l-21.6,45.65c-.82,1.74-.08,3.82,1.67,4.65,.47,.22,.97,.33,1.49,.33h41c1.93,0,3.5-1.55,3.5-3.48,0-.52-.11-1.03-.33-1.5l-21.51-45.65c-.56-1.16-1.95-1.66-3.11-1.1-.48,.23-.87,.62-1.1,1.1Z"/><path class="cls-1" d="M730.3,367.71V221.26c0-1.23,1-2.22,2.22-2.22h0c.66,0,1.29,.28,1.72,.78l96.53,111.18c.84,.97,2.31,1.08,3.28,.24,.51-.44,.81-1.09,.8-1.77v-106.98c0-1.93,1.56-3.49,3.49-3.49h8.02c1.92,0,3.48,1.55,3.49,3.47,0,0,0,.01,0,.02v146.42c0,1.23-1,2.22-2.22,2.22h-.11c-.66,0-1.28-.29-1.71-.78l-95.69-109.79c-.85-.97-2.32-1.07-3.29-.22-.51,.44-.8,1.08-.8,1.75v105.61c0,1.93-1.56,3.49-3.49,3.49h-8.74c-1.93,0-3.49-1.56-3.49-3.49h0Z"/><path class="cls-1" d="M886.94,367.71V222.49c0-1.93,1.56-3.49,3.49-3.49h28.06c22.77,0,39.29,1.83,49.56,5.48,14.25,4.78,26.46,14.27,34.61,26.89,8.3,12.76,12.46,27.96,12.46,45.58,0,15.25-3.29,28.66-9.88,40.25-6.59,11.58-15.14,20.14-25.66,25.66-10.52,5.53-25.26,8.29-44.23,8.28h-44.93c-1.9,0-3.45-1.53-3.49-3.44Zm14.59-14.39c0,1.93,1.56,3.49,3.49,3.49h14.1c21.04,0,35.62-1.31,43.76-3.92,11.04-3.42,20.57-10.51,27.01-20.11,6.56-9.69,9.84-21.52,9.83-35.51,0-14.68-3.55-27.22-10.65-37.62-7.1-10.41-17-17.54-29.7-21.4-9.52-2.89-25.21-4.34-47.07-4.34h-7.27c-1.93,0-3.49,1.56-3.49,3.49h0v115.93Z"/><path class="cls-1" d="M1048.11,219h8.23c1.93,0,3.49,1.56,3.49,3.49h0v130.51c0,1.93,1.56,3.49,3.49,3.49h51.58c1.93,0,3.49,1.56,3.49,3.49h0v7.73c0,1.93-1.56,3.49-3.49,3.49h-66.79c-1.93,0-3.48-1.57-3.49-3.49V222.49c0-1.93,1.56-3.49,3.49-3.49h0Z"/><path class="cls-1" d="M1146.09,219h80.24c1.93,0,3.49,1.56,3.49,3.49h0v7.92c0,1.93-1.57,3.48-3.49,3.49h-65.04c-1.92,0-3.48,1.55-3.49,3.47v40.74c0,1.93,1.56,3.49,3.49,3.49h64.41c1.93,0,3.49,1.56,3.49,3.49h0v7.92c0,1.93-1.57,3.48-3.49,3.49h-64.41c-1.92,0-3.48,1.55-3.49,3.47v52.83c0,1.93,1.55,3.5,3.48,3.5h64.42c1.93,0,3.49,1.56,3.49,3.49h0v7.93c0,1.93-1.57,3.48-3.49,3.49h-79.61c-1.93,0-3.49-1.56-3.49-3.49h0V222.49c0-1.92,1.55-3.48,3.47-3.49h.02Z"/></g></g></g></svg>